<?xml version="1.0" encoding="UTF-8" standalone="no"?>
<!-- Created with Inkscape (http://www.inkscape.org/) -->

<svg
   xmlns:dc="http://purl.org/dc/elements/1.1/"
   xmlns:cc="http://creativecommons.org/ns#"
   xmlns:rdf="http://www.w3.org/1999/02/22-rdf-syntax-ns#"
   xmlns:svg="http://www.w3.org/2000/svg"
   xmlns="http://www.w3.org/2000/svg"
   xmlns:sodipodi="http://sodipodi.sourceforge.net/DTD/sodipodi-0.dtd"
   xmlns:inkscape="http://www.inkscape.org/namespaces/inkscape"
   width="48px"
   height="48px"
   id="svg3100"
   version="1.1"
   inkscape:version="0.48.3.1 r9886"
   sodipodi:docname="being_mapped.svg">
  <defs
     id="defs3102" />
  <sodipodi:namedview
     id="base"
     pagecolor="#ffffff"
     bordercolor="#666666"
     borderopacity="1.0"
     inkscape:pageopacity="0.0"
     inkscape:pageshadow="2"
     inkscape:zoom="7"
     inkscape:cx="24.318599"
     inkscape:cy="24.719599"
     inkscape:current-layer="layer1"
     showgrid="true"
     inkscape:grid-bbox="true"
     inkscape:document-units="px"
     inkscape:window-width="1223"
     inkscape:window-height="936"
     inkscape:window-x="57"
     inkscape:window-y="24"
     inkscape:window-maximized="1" />
  <metadata
     id="metadata3105">
    <rdf:RDF>
      <cc:Work
         rdf:about="">
        <dc:format>image/svg+xml</dc:format>
        <dc:type
           rdf:resource="http://purl.org/dc/dcmitype/StillImage" />
        <dc:title></dc:title>
      </cc:Work>
    </rdf:RDF>
  </metadata>
  <g
     id="layer1"
     inkscape:label="Layer 1"
     inkscape:groupmode="layer">
    <path
       style="fill:#ff6600"
       id="path3205"
       d="m 4.8155872,24.265894 c 0.092652,-1.785186 0.8676805,-3.46952 1.578473,-5.079492 0.8440033,-1.700999 1.6884263,-3.422481 2.7833032,-4.981241 0.7635365,-1.087035 1.0234846,-1.318079 1.9193426,-2.322634 1.584335,-1.631038 3.398383,-3.0415018 5.363625,-4.1871654 4.823852,-2.8121284 3.554657,-2.1756794 6.456076,-3.5379532 1.131051,-0.4339523 2.411919,-0.8845025 3.595895,-0.3489324 0.556964,0.2519422 0.66451,0.4471077 1.078857,0.8785387 0.984916,1.308487 1.115946,2.9337572 1.225735,4.5110341 0.0443,1.2446542 0.08292,2.4942002 -0.02165,3.7371122 -0.07219,0.857957 -0.129023,1.127521 -0.260714,1.98095 -0.435172,2.344444 -1.004582,4.659997 -1.489635,6.994104 -0.373079,1.823859 -0.654128,3.665632 -1.138824,5.465376 -0.299443,1.111869 -0.457908,1.532217 -0.823436,2.627173 -0.573081,1.840939 -1.195373,3.785676 -1.260642,5.72963 -0.0099,0.294648 0.01054,0.589533 0.01581,0.8843 0.03951,0.278491 0.05566,0.561312 0.118542,0.835474 0.228359,0.995706 0.818289,1.910094 1.612678,2.549337 0.193817,0.155965 0.413071,0.277368 0.619606,0.416052 0.224981,0.103684 0.438673,0.236595 0.674942,0.311051 0.999991,0.31513 2.367266,0.09941 3.327722,-0.261315 0.305276,-0.114655 0.589497,-0.279017 0.884245,-0.418526 -1.014646,0.575291 -1.994863,1.216061 -3.043938,1.725873 -0.441311,0.214461 0.821247,-0.538608 1.211857,-0.835548 1.901051,-1.445172 3.57648,-3.245308 5.223355,-4.965996 0.402149,-0.438104 0.807399,-0.873381 1.206447,-1.314312 0.824968,-0.911556 1.334919,-1.489592 2.111459,-2.422717 0.653189,-0.784901 1.275248,-1.594778 1.918313,-2.387852 0.131488,-0.158118 0.262976,-0.316235 0.394465,-0.474353 0,0 4.547948,-1.913786 4.547948,-1.913786 l 0,0 c -0.161292,0.169506 -0.322583,0.339012 -0.483875,0.508519 -1.96293,2.068731 -3.742624,4.306286 -5.73224,6.351663 -1.327486,1.40292 -1.210824,1.296658 -2.565312,2.660671 -0.842753,0.848679 -1.497092,1.522611 -2.406432,2.288637 -1.949851,1.642548 -3.473581,2.211486 -6.108988,3.726707 -0.317999,0.125551 -0.62777,0.274366 -0.953996,0.376654 -1.14349,0.358542 -2.460878,0.475445 -3.600143,0.03543 -0.251217,-0.09703 -0.476502,-0.251084 -0.714753,-0.376626 -0.570976,-0.425508 -0.772023,-0.526992 -1.242862,-1.075099 -0.771063,-0.897599 -1.176993,-1.986637 -1.271768,-3.158992 8.71e-4,-0.315915 -0.01538,-0.632341 0.0026,-0.947744 0.04686,-0.821426 0.154648,-1.327877 0.336068,-2.137872 0.2858,-1.276022 0.63844,-2.537669 1.059762,-3.775582 0.435375,-1.293982 0.861823,-2.584462 1.179171,-3.913868 0.238116,-0.997493 0.362146,-1.729413 0.551162,-2.738 0.08668,-0.462554 0.173443,-0.925094 0.260165,-1.387641 0.413195,-2.300841 0.869122,-4.592941 1.311169,-6.88834 0.129745,-0.816837 0.191406,-1.109 0.261763,-1.930204 0.104257,-1.216892 0.07053,-2.437945 5.41e-4,-3.655568 C 24.435417,10.200659 24.360846,8.8729659 23.737085,7.7810766 23.63402,7.6006601 23.498722,7.4406744 23.37954,7.2704732 23.00117,6.9171403 22.937603,6.7872932 22.442243,6.6027501 c -1.032182,-0.384533 -2.124209,0.026543 -3.09118,0.3916118 -1.798435,0.8398106 -2.045148,1.0063218 1.193879,-0.8843754 0.49029,-0.2861937 -0.973832,0.5843294 -1.449113,0.8948107 -1.027964,0.6715263 -1.801615,1.2254178 -2.722365,2.036495 -0.400234,0.3525604 -0.769692,0.7385915 -1.154537,1.1078868 -0.335053,0.370064 -0.683931,0.728064 -1.005159,1.11019 -1.523,1.811732 -2.671227,3.912299 -3.696934,6.033424 -0.175663,0.418775 -0.370779,0.829912 -0.5269886,1.256326 -0.3782951,1.032653 -0.6618838,2.158024 -0.5538947,3.265643 0,0 -4.6203635,2.451132 -4.6203635,2.451132 z"
       inkscape:connector-curvature="0" />
  </g>
</svg>
