<?xml version="1.0" encoding="UTF-8" standalone="no"?>
<!-- Created with Inkscape (http://www.inkscape.org/) -->

<svg
   xmlns:dc="http://purl.org/dc/elements/1.1/"
   xmlns:cc="http://creativecommons.org/ns#"
   xmlns:rdf="http://www.w3.org/1999/02/22-rdf-syntax-ns#"
   xmlns:svg="http://www.w3.org/2000/svg"
   xmlns="http://www.w3.org/2000/svg"
   xmlns:sodipodi="http://sodipodi.sourceforge.net/DTD/sodipodi-0.dtd"
   xmlns:inkscape="http://www.inkscape.org/namespaces/inkscape"
   width="16"
   height="16"
   id="svg2"
   version="1.1"
   inkscape:version="0.48.3.1 r9886"
   sodipodi:docname="configurations.svg">
  <defs
     id="defs4" />
  <sodipodi:namedview
     id="base"
     pagecolor="#ffffff"
     bordercolor="#666666"
     borderopacity="1.0"
     inkscape:pageopacity="0.0"
     inkscape:pageshadow="2"
     inkscape:zoom="11.2"
     inkscape:cx="16.156752"
     inkscape:cy="6.8359491"
     inkscape:document-units="px"
     inkscape:current-layer="layer1"
     showgrid="false"
     inkscape:window-width="1383"
     inkscape:window-height="876"
     inkscape:window-x="1337"
     inkscape:window-y="148"
     inkscape:window-maximized="1" />
  <metadata
     id="metadata7">
    <rdf:RDF>
      <cc:Work
         rdf:about="">
        <dc:format>image/svg+xml</dc:format>
        <dc:type
           rdf:resource="http://purl.org/dc/dcmitype/StillImage" />
        <dc:title />
      </cc:Work>
    </rdf:RDF>
  </metadata>
  <g
     inkscape:label="Layer 1"
     inkscape:groupmode="layer"
     id="layer1"
     transform="translate(0,-1036.3622)">
    <path
       style="fill:none;stroke:#000000;stroke-width:1px;stroke-linecap:butt;stroke-linejoin:miter;stroke-opacity:1"
       d="m 7.5964103,1037.7195 3.3524817,0.8555 c 0,0 -0.947436,1.7155 -1.0977154,3.186 0.7100934,0.3201 1.3958254,0.669 1.4537314,1.2685 1.867652,-0.2265 3.916172,-1.121 3.916172,-1.121 l 0.474688,3.717 c 0,0 -2.229091,-0.2918 -4.479864,-0.2065 0.004,0.4689 -0.089,0.944 -0.919707,1.416 0.445019,1.0325 1.572402,3.4515 1.572402,3.4515 l -2.8481257,0.826 c 0,0 -0.6055794,-2.7019 -1.1273833,-3.9825 -0.6998117,0.2843 -1.5284521,0.038 -1.8987501,-0.354 -1.2900054,1.6435 -3.3228132,2.8025 -3.3228132,2.8025 L 1.0101201,1046.54 c 0,0 2.2700025,-1.1265 3.500821,-1.7995 -0.5789281,-0.7909 -0.4930001,-1.3052 -0.2966797,-1.7995 -0.9310626,-0.7303 -3.76783283,-2.478 -3.76783283,-2.478 l 2.01742233,-2.183 c 0,0 2.3516433,2.7469 3.2338093,3.5695 0.1998024,-0.4459 0.6455186,-0.5909 0.9197072,-0.5605 0.5412005,-0.6186 0.9790429,-3.5695 0.9790429,-3.5695 z"
       id="path2987"
       inkscape:connector-curvature="0"
       sodipodi:nodetypes="ccccccccccccccccccccc" />
  </g>
</svg>
