<?xml version="1.0" encoding="UTF-8" standalone="no"?>
<!-- Created with Inkscape (http://www.inkscape.org/) -->

<svg
   xmlns:dc="http://purl.org/dc/elements/1.1/"
   xmlns:cc="http://creativecommons.org/ns#"
   xmlns:rdf="http://www.w3.org/1999/02/22-rdf-syntax-ns#"
   xmlns:svg="http://www.w3.org/2000/svg"
   xmlns="http://www.w3.org/2000/svg"
   xmlns:sodipodi="http://sodipodi.sourceforge.net/DTD/sodipodi-0.dtd"
   xmlns:inkscape="http://www.inkscape.org/namespaces/inkscape"
   width="10"
   height="10"
   id="svg3100"
   version="1.1"
   inkscape:version="0.48.3.1 r9886"
   sodipodi:docname="done.svg">
  <defs
     id="defs3102" />
  <sodipodi:namedview
     id="base"
     pagecolor="#ffffff"
     bordercolor="#666666"
     borderopacity="1.0"
     inkscape:pageopacity="0.0"
     inkscape:pageshadow="2"
     inkscape:zoom="7"
     inkscape:cx="24.318599"
     inkscape:cy="24.719599"
     inkscape:current-layer="layer1"
     showgrid="true"
     inkscape:grid-bbox="true"
     inkscape:document-units="px"
     inkscape:window-width="1223"
     inkscape:window-height="936"
     inkscape:window-x="57"
     inkscape:window-y="24"
     inkscape:window-maximized="1" />
  <metadata
     id="metadata3105">
    <rdf:RDF>
      <cc:Work
         rdf:about="">
        <dc:format>image/svg+xml</dc:format>
        <dc:type
           rdf:resource="http://purl.org/dc/dcmitype/StillImage" />
        <dc:title></dc:title>
      </cc:Work>
    </rdf:RDF>
  </metadata>
  <g
     id="layer1"
     inkscape:label="Layer 1"
     inkscape:groupmode="layer"
     transform="translate(0,-38)">
    <path
       style="fill:#008000"
       id="path3157"
       d="m 1.6207341,41.309183 c 0.00515,0.01286 0.00914,0.0264 0.015439,0.03859 0.055333,0.107033 0.126176,0.205319 0.192299,0.303678 0.1178236,0.175262 0.080059,0.119171 0.2041609,0.302014 0.2574973,0.350921 0.5049512,0.710888 0.757162,1.066579 0.226028,0.329822 0.4580888,0.654424 0.6610626,1.0032 0.1480581,0.252469 0.2552034,0.530316 0.3804589,0.796979 0.087327,0.174463 0.151233,0.35955 0.2036719,0.550241 0.041896,0.146272 0.067715,0.296996 0.084688,0.449249 0.01667,0.137322 0.019972,0.277008 0.052299,0.411149 0.032193,0.109888 0.077687,0.213997 0.1197003,0.319371 0.036445,0.0873 0.071584,0.174406 0.094682,0.267499 0.2279134,0.573877 -2.4864281,0.918735 -1.7169051,1.053291 0.012691,-0.01687 0.027636,-0.03187 0.03807,-0.05061 0.078045,-0.140168 0.1254381,-0.334254 0.166041,-0.492517 0.068972,-0.285476 0.1242061,-0.574785 0.1673536,-0.866586 0.039539,-0.244414 0.065092,-0.49165 0.1080864,-0.73539 0.022212,-0.125926 0.05441,-0.270997 0.081081,-0.395737 0.057895,-0.250406 0.1117537,-0.502272 0.1907483,-0.745624 0.050387,-0.155224 0.065036,-0.183678 0.1262493,-0.335193 0.1446384,-0.336158 0.3355228,-0.640757 0.5424197,-0.930817 0.2278451,-0.309438 0.4740806,-0.600245 0.7206813,-0.890409 0.2495849,-0.296277 0.5004644,-0.591131 0.7519314,-0.885369 0.2365786,-0.271574 0.4823843,-0.533231 0.731362,-0.790273 0.2696644,-0.278452 0.5466295,-0.547484 0.8256574,-0.813818 0.2615289,-0.24476 0.5232403,-0.489053 0.7902617,-0.726156 0.1975297,-0.181973 0.4066637,-0.34718 0.6061193,-0.526233 0.018576,-0.01804 0.037159,-0.03609 0.055735,-0.05413 0,0 1.8165822,-0.82208 1.8165822,-0.82208 l 0,0 c -0.02301,0.01911 -0.04603,0.03824 -0.06904,0.05736 -0.213379,0.198695 -0.4486251,0.362962 -0.6651738,0.557354 -0.1791497,0.156529 -0.3587307,0.312909 -0.5320522,0.477685 -0.043011,0.04089 -0.084292,0.08408 -0.1276636,0.124476 -0.044056,0.04103 -0.089696,0.07983 -0.1345437,0.119758 -0.2844108,0.25791 -0.5621657,0.524869 -0.8299693,0.804635 -0.2499918,0.255046 -0.4896617,0.522374 -0.7379592,0.779467 -0.2553114,0.293072 -0.504975,0.592288 -0.7602407,0.885405 -0.2361777,0.288636 -0.4821634,0.567399 -0.705212,0.869465 -0.210406,0.273636 -0.405466,0.561691 -0.5603416,0.880329 -0.069674,0.160702 -0.1397812,0.321815 -0.1966065,0.489072 -0.052017,0.153103 -0.063889,0.209293 -0.1026755,0.368502 -0.015601,0.06404 -0.030575,0.128275 -0.045864,0.192411 -0.084302,0.362714 -0.1384648,0.73206 -0.1797566,1.103976 -0.036469,0.289052 -0.063908,0.579693 -0.1155806,0.866107 -0.032842,0.14152 -0.064434,0.283857 -0.1015106,0.424055 -0.00693,0.02623 -0.017526,0.05125 -0.022998,0.07791 -0.00492,0.02398 -0.00536,0.04887 -0.00803,0.07329 0.00163,0.02628 0.025394,0.06624 0.00491,0.07883 -0.593358,0.364475 -1.6148541,1.633836 -1.8550416,0.920848 -0.012082,-0.03587 -0.010692,-0.04288 -0.013027,-0.0774 -0.010108,-0.08358 -0.040153,-0.157953 -0.068164,-0.235534 -0.042213,-0.115833 -0.08621,-0.2315 -0.1189444,-0.35115 C 2.4035161,47.153507 2.3862449,47.008935 2.3729096,46.860118 2.3533852,46.71834 2.3568562,46.572149 2.3151772,46.43444 2.2660911,46.253108 2.2287198,46.067853 2.1563564,45.895426 2.048674,45.626598 1.9447663,45.355205 1.8197579,45.095888 1.7654922,44.993277 1.7087747,44.883199 1.6500154,44.783858 1.508792,44.545104 1.3480083,44.321736 1.1972387,44.090823 0.95715951,43.725992 0.69745545,43.379084 0.42619234,43.043309 0.25586679,42.832424 0.08263517,42.625332 -0.11333789,42.444314 c 0,0 1.73407199,-1.135131 1.73407199,-1.135131 z"
       inkscape:connector-curvature="0" />
  </g>
</svg>
