<?xml version="1.0" encoding="UTF-8" standalone="no"?>
<!-- Created with Inkscape (http://www.inkscape.org/) -->

<svg
   xmlns:dc="http://purl.org/dc/elements/1.1/"
   xmlns:cc="http://creativecommons.org/ns#"
   xmlns:rdf="http://www.w3.org/1999/02/22-rdf-syntax-ns#"
   xmlns:svg="http://www.w3.org/2000/svg"
   xmlns="http://www.w3.org/2000/svg"
   xmlns:sodipodi="http://sodipodi.sourceforge.net/DTD/sodipodi-0.dtd"
   xmlns:inkscape="http://www.inkscape.org/namespaces/inkscape"
   width="16"
   height="16"
   id="svg3100"
   version="1.1"
   inkscape:version="0.48.3.1 r9886"
   sodipodi:docname="done.svg">
  <defs
     id="defs3102" />
  <sodipodi:namedview
     id="base"
     pagecolor="#ffffff"
     bordercolor="#666666"
     borderopacity="1.0"
     inkscape:pageopacity="0.0"
     inkscape:pageshadow="2"
     inkscape:zoom="7"
     inkscape:cx="24.318599"
     inkscape:cy="24.719599"
     inkscape:current-layer="layer1"
     showgrid="true"
     inkscape:grid-bbox="true"
     inkscape:document-units="px"
     inkscape:window-width="1223"
     inkscape:window-height="936"
     inkscape:window-x="57"
     inkscape:window-y="24"
     inkscape:window-maximized="1" />
  <metadata
     id="metadata3105">
    <rdf:RDF>
      <cc:Work
         rdf:about="">
        <dc:format>image/svg+xml</dc:format>
        <dc:type
           rdf:resource="http://purl.org/dc/dcmitype/StillImage" />
        <dc:title />
      </cc:Work>
    </rdf:RDF>
  </metadata>
  <g
     id="layer1"
     inkscape:label="Layer 1"
     inkscape:groupmode="layer"
     transform="translate(0,-32)">
    <path
       style="fill:#008000"
       id="path3157"
       d="m 2.6245747,37.334784 c 0.00813,0.0203 0.014428,0.04169 0.024376,0.06093 0.087364,0.168993 0.1992183,0.324176 0.3036194,0.479474 0.1860308,0.27672 0.1264039,0.188158 0.322348,0.476848 0.4065604,0.554066 0.7972634,1.122415 1.1954771,1.684013 0.3568739,0.520754 0.7232728,1.033265 1.0437465,1.583945 0.2337678,0.398621 0.4029386,0.837312 0.6007036,1.258344 0.1378801,0.275458 0.2387805,0.56769 0.3215759,0.868771 0.066149,0.230947 0.1069141,0.468925 0.1337127,0.709316 0.026321,0.216816 0.031533,0.437365 0.082574,0.64916 0.05083,0.1735 0.1226588,0.337878 0.188994,0.504252 0.057543,0.13784 0.1130227,0.275368 0.149493,0.422352 0.3598508,0.906089 -3.9258016,1.450583 -2.7108078,1.663033 0.020037,-0.02663 0.043635,-0.05032 0.060109,-0.0799 0.1232243,-0.22131 0.1980532,-0.527751 0.2621609,-0.777631 0.1088997,-0.450736 0.1961079,-0.907524 0.2642332,-1.368246 0.062428,-0.385903 0.1027737,-0.776262 0.1706568,-1.161102 0.035071,-0.198823 0.085908,-0.427875 0.1280176,-0.624825 0.09141,-0.395365 0.1764471,-0.793034 0.301171,-1.177261 0.079555,-0.245082 0.1026852,-0.290008 0.199334,-0.529233 0.2283685,-0.530757 0.5297544,-1.011686 0.8564222,-1.469659 0.3597428,-0.48857 0.7485222,-0.947722 1.1378781,-1.40586 0.3940676,-0.46779 0.7901792,-0.933333 1.1872185,-1.397903 0.373532,-0.428785 0.7616327,-0.841913 1.1547416,-1.247756 0.425771,-0.439645 0.863069,-0.864417 1.303624,-1.28493 0.412926,-0.386449 0.82614,-0.772162 1.247738,-1.146522 0.311878,-0.287316 0.642078,-0.54816 0.956997,-0.830865 0.02933,-0.02848 0.05867,-0.05699 0.088,-0.08547 0,0 2.868188,-1.297976 2.868188,-1.297976 l 0,0 c -0.03633,0.03018 -0.07267,0.06038 -0.109005,0.09056 -0.336902,0.313718 -0.70833,0.573079 -1.050237,0.880003 -0.282858,0.247141 -0.566397,0.494049 -0.840053,0.754213 -0.06791,0.06456 -0.133088,0.132748 -0.201567,0.196534 -0.06956,0.06478 -0.14162,0.126051 -0.21243,0.189084 -0.449054,0.407212 -0.887599,0.828712 -1.310432,1.270433 -0.39471,0.402689 -0.773123,0.824772 -1.165158,1.230693 -0.403109,0.46273 -0.797301,0.93516 -1.200338,1.397959 -0.372899,0.455725 -0.761284,0.895862 -1.1134536,1.372792 -0.3322084,0.432042 -0.6401871,0.886849 -0.884719,1.389944 -0.1100083,0.253732 -0.2206993,0.508111 -0.3104204,0.772192 -0.082129,0.241734 -0.1008742,0.330452 -0.1621135,0.581826 -0.024633,0.101107 -0.048275,0.202532 -0.072414,0.303796 -0.1331045,0.572686 -0.218621,1.155843 -0.2838163,1.743058 -0.05758,0.456383 -0.1009041,0.915274 -0.1824893,1.36749 -0.051854,0.223445 -0.1017349,0.44818 -0.1602743,0.669537 -0.010949,0.04142 -0.027671,0.08091 -0.036311,0.123014 -0.00777,0.03787 -0.00846,0.07716 -0.012679,0.115725 0.00258,0.04149 0.040095,0.104583 0.00775,0.124462 -0.9368482,0.575467 -2.5496804,2.57965 -2.9289105,1.453919 -0.019077,-0.05664 -0.016881,-0.06771 -0.020568,-0.122211 -0.01596,-0.13196 -0.063397,-0.249391 -0.1076242,-0.371882 C 4.0429638,47.160335 3.9734979,46.97771 3.9218136,46.788795 3.860503,46.562342 3.8332336,46.334078 3.8121786,46.099111 3.7813517,45.87526 3.7868321,45.64444 3.7210254,45.427012 3.6435238,45.140708 3.5845185,44.84821 3.4702645,44.575967 3.3002456,44.151516 3.1361865,43.723017 2.9388117,43.313583 2.8531321,43.151571 2.7635813,42.97777 2.6708067,42.820922 2.4478302,42.443954 2.1939701,42.09128 1.9559212,41.726694 1.576862,41.150665 1.1668173,40.602934 0.73852212,40.072782 0.46959646,39.739817 0.19608242,39.412841 -0.11333789,39.127034 c 0,0 2.73791259,-1.79225 2.73791259,-1.79225 z"
       inkscape:connector-curvature="0" />
  </g>
</svg>
