<?xml version="1.0" encoding="UTF-8" standalone="no"?>
<!-- Created with Inkscape (http://www.inkscape.org/) -->

<svg
   xmlns:dc="http://purl.org/dc/elements/1.1/"
   xmlns:cc="http://creativecommons.org/ns#"
   xmlns:rdf="http://www.w3.org/1999/02/22-rdf-syntax-ns#"
   xmlns:svg="http://www.w3.org/2000/svg"
   xmlns="http://www.w3.org/2000/svg"
   xmlns:sodipodi="http://sodipodi.sourceforge.net/DTD/sodipodi-0.dtd"
   xmlns:inkscape="http://www.inkscape.org/namespaces/inkscape"
   width="48px"
   height="48px"
   id="svg3100"
   version="1.1"
   inkscape:version="0.48.3.1 r9886"
   sodipodi:docname="interogation_mark.svg">
  <defs
     id="defs3102" />
  <sodipodi:namedview
     id="base"
     pagecolor="#ffffff"
     bordercolor="#666666"
     borderopacity="1.0"
     inkscape:pageopacity="0.0"
     inkscape:pageshadow="2"
     inkscape:zoom="7"
     inkscape:cx="24.318599"
     inkscape:cy="24.719599"
     inkscape:current-layer="layer1"
     showgrid="true"
     inkscape:grid-bbox="true"
     inkscape:document-units="px"
     inkscape:window-width="1223"
     inkscape:window-height="936"
     inkscape:window-x="57"
     inkscape:window-y="24"
     inkscape:window-maximized="1" />
  <metadata
     id="metadata3105">
    <rdf:RDF>
      <cc:Work
         rdf:about="">
        <dc:format>image/svg+xml</dc:format>
        <dc:type
           rdf:resource="http://purl.org/dc/dcmitype/StillImage" />
        <dc:title />
      </cc:Work>
    </rdf:RDF>
  </metadata>
  <g
     id="layer1"
     inkscape:label="Layer 1"
     inkscape:groupmode="layer">
    <path
       style="fill:#000000;fill-opacity:1;fill-rule:nonzero;stroke:none"
       id="path2989"
       d="m 14.297246,13.714286 c 0.905359,-0.528577 -0.561022,-1.923394 0,-2.571429 0.147149,-0.169972 0.279609,0.352627 0.406185,0.538428 0.05442,0.07989 0.178306,0.343062 0.135335,0.256475 -0.08477,-0.170813 -0.234183,-0.320359 -0.260748,-0.509189 -0.05971,-0.424401 0.0055,-0.857142 0.0082,-1.285714 -0.0011,-0.3333332 -0.08028,-0.6756764 -0.0033,-0.9999999 0.02374,-0.1000238 0.210065,-0.2215679 0.274183,-0.1412097 0.181587,0.2275829 0.182076,0.5531041 0.274703,0.8291262 0.04614,0.1374969 0.120605,0.5549184 0.141595,0.4114124 0.02767,-0.189166 -0.106328,-0.370192 -0.119729,-0.5609009 -0.02593,-0.3690429 0.0015,-0.7399043 0.0023,-1.1098565 -0.8706,-1.350323 0.05919,-0.5614937 0.126384,-0.4285715 0.129229,0.2556522 0.153991,0.5541476 0.271793,0.8152622 0.06584,0.1459415 0.147985,0.4932739 0.273995,0.394504 0.141257,-0.1107211 -0.09205,-0.3493402 -0.103067,-0.528481 -0.02271,-0.3692556 0.0015,-0.7399044 0.0023,-1.1098566 C 15.725817,7.4761905 15.595862,7.2016161 15.722523,7 c 0.07022,-0.1117708 0.221325,0.1647627 0.274182,0.2857143 0.133706,0.3059536 0.121846,0.6658136 0.271981,0.9640488 0.08138,0.1616591 0.244172,0.4624805 0.398816,0.3684494 0.259373,-0.1577115 0.243251,-0.5562563 0.366375,-0.8337231 0.187233,-0.421941 0.37646,-0.8429941 0.56469,-1.2644912 0.130607,-0.17972 0.623396,-1.2651228 0.817731,-0.1349548 0.05273,0.3066452 -0.107522,0.6133259 -0.142412,0.9225091 -0.0099,0.08745 -0.02077,0.3468578 0.0085,0.2638761 0.08904,-0.2521096 0.06197,-0.5404208 0.174746,-0.7828431 0.189828,-0.408056 0.48039,-0.7611847 0.720585,-1.1417771 0.142946,-0.1949078 0.188337,-0.608844 0.428838,-0.5847235 0.230954,0.023163 0.230825,0.4204609 0.243964,0.6522008 0.01942,0.3425932 -0.137108,0.6756266 -0.149235,1.0185557 -0.0014,0.038332 0.09284,0.057966 0.112336,0.024934 0.153559,-0.2601743 0.22562,-0.5614011 0.36308,-0.8304284 0.173315,-0.3392004 0.378604,-0.6610894 0.567906,-0.9916341 1.196234,-1.0999353 -0.24005,2.5507645 0.398217,1.6390108 0.213404,-0.3048439 0.394712,-0.6314135 0.60957,-0.9352348 0.275524,-0.3896087 0.573835,-0.7625934 0.860752,-1.14389 0.213178,-0.066343 0.479066,-0.3542587 0.639535,-0.1990294 0.541177,0.5235071 0.218221,1.7292569 0.161575,2.2909314 -0.0043,0.042257 0.01117,0.1692311 0.01263,0.1267852 0.01189,-0.3451685 -0.07238,-0.7027974 0.01868,-1.0359511 0.11441,-0.4186032 0.38844,-0.7761362 0.582661,-1.1642042 0.87808,-0.2925408 0.822807,-0.515471 1.097568,0.8784899 0.07599,0.3855205 -7.23e-4,0.7858967 0.0038,1.1788083 5.56e-4,0.047771 0.0023,0.1897287 0.01153,0.1428571 0.06865,-0.3481657 0.03457,-0.7223374 0.167587,-1.0513321 0.170885,-0.4226486 0.484064,-0.7726682 0.726096,-1.1590024 0.265294,-0.069075 0.584673,-0.3819919 0.795881,-0.2072259 0.574656,0.4755045 0.167853,1.7811858 0.154944,2.2907752 -9.87e-4,0.038958 0.08982,0.058253 0.11365,0.027417 0.201006,-0.2601114 0.318326,-0.5776331 0.515056,-0.840993 0.263101,-0.3522089 0.573381,-0.6665787 0.860071,-0.999868 C 28.649663,4.7557805 28.932964,4.5563652 29,4.7192278 c 0.265814,0.645795 -0.171475,1.842742 -0.303159,2.4549826 -0.0079,0.0367 0.0034,0.146935 0.0158,0.1115039 0.122319,-0.349443 0.134018,-0.7428416 0.317716,-1.0642876 0.221867,-0.388237 0.581808,-0.6791989 0.872712,-1.0187984 0.189678,0.031786 0.502431,-0.085063 0.569033,0.095359 0.235424,0.6377477 -0.160277,1.7864711 -0.495181,2.3247734 -0.04888,0.078564 -0.281098,0.1805449 -0.262632,0.089878 0.0776,-0.3810386 0.215248,-0.7708318 0.462448,-1.0710061 0.270253,-0.3281669 0.689455,-0.4975656 1.034183,-0.7463484 0.271817,0.038576 0.671974,-0.1183386 0.815452,0.1157271 0.380036,0.6199777 -0.237881,1.671393 -0.631675,2.0616424 -0.09478,0.09393 -0.38221,0.1997656 -0.394694,0.066909 -0.03039,-0.323404 0.09874,-0.6794192 0.314309,-0.9224054 0.269224,-0.3034612 0.699983,-0.4102497 1.049975,-0.6153745 0.268314,0.041171 0.665111,-0.1091549 0.804942,0.1235142 0.4768,0.7933625 -0.434475,1.843731 -0.929435,2.2149322 -0.486563,0.3649038 -1.488471,0.3439122 -0.649908,-0.7042757 0.297141,-0.3714208 0.799855,-0.5149922 1.199783,-0.7724884 0.367809,0.089283 0.883928,-0.040494 1.103428,0.267849 0.613245,0.8614572 -0.150986,2.148392 -0.791987,2.6302302 -1.089113,0.818683 -0.951816,-0.612083 -0.65532,-0.9748532 0.28938,-0.354065 0.807467,-0.4294296 1.211201,-0.6441444 0.373861,0.191174 0.916483,0.2071158 1.121585,0.5735218 0.564451,1.0083668 -0.05367,2.1766588 -0.974804,2.6305588 -0.772104,0.380465 -1.530761,-0.313277 -0.934798,-1.111322 0.276453,-0.370195 0.811059,-0.442792 1.216588,-0.664187 0.373862,0.191174 0.937135,0.196297 1.121586,0.573522 0.44454,0.909138 -0.252245,2.27692 -1.117661,2.630558 -1.351689,0.552346 -1.120702,-1.086934 -0.786325,-1.549408 0.268857,-0.371856 0.807314,-0.436448 1.210971,-0.654672 0.332553,0.243007 0.846257,0.345978 0.99766,0.72902 0.376303,0.952029 -0.179708,2.156847 -1.14299,2.48251 -0.991522,0.335211 -1.404513,-0.696325 -0.927261,-1.401204 0.224568,-0.331677 0.719038,-0.353193 1.078557,-0.52979 0.333202,0.295262 0.853428,0.465269 0.999607,0.885786 0.314071,0.903503 -0.07599,2.334675 -1.150903,2.616637 -0.705349,0.18502 -1.582418,-0.714188 -0.928401,-1.404487 0.298514,-0.315073 0.828356,-0.259526 1.242533,-0.389289 0.368717,0.244995 0.916308,0.335066 1.106151,0.734983 0.526913,1.109977 -0.425542,1.979919 -1.284681,2.34868 -0.329667,0.1415 -0.794396,0.252699 -1.075831,0.03022 -0.228036,-0.180268 -0.182169,-0.654776 0.01101,-0.871981 0.295961,-0.332766 0.819657,-0.348523 1.229485,-0.522784 0.369836,0.193169 0.906478,0.214991 1.109506,0.579507 0.57965,1.040701 -0.508315,1.845939 -1.282524,2.07761 -0.08601,0.02574 -2.03636,0.101039 -1.202098,-0.965106 0.241001,-0.307988 0.732446,-0.274363 1.098669,-0.411544 0.27763,0.197981 0.755016,0.261962 0.83289,0.593942 0.273516,1.16602 -1.024685,1.9112 -1.884145,2.07176 -0.669315,0.125039 -1.956506,-0.226436 -1.18668,-1.275997 0.236818,-0.322871 0.719798,-0.351005 1.079697,-0.526508 0.282757,0.195963 0.76103,0.255109 0.848271,0.587888 0.103058,0.393115 -0.09544,0.876186 -0.39145,1.154648 -0.352824,0.331913 -0.881072,0.512729 -1.365255,0.497939 -0.807227,-0.02466 -1.781611,-0.709675 -1.455838,-1.673573 0.102188,-0.302354 0.517079,-0.374259 0.775618,-0.561389 0.244804,0.197088 0.679581,0.281804 0.734412,0.591265 0.17891,1.009756 -0.866406,1.945134 -1.747571,2.061622 -0.803776,0.106257 -1.981967,-0.463171 -1.758398,-1.502674 0.0728,-0.338483 0.504975,-0.473797 0.757462,-0.710695 0.288499,0.139208 0.744912,0.120859 0.865496,0.417625 0.147146,0.36214 0.0428,0.868743 -0.228443,1.150213 -0.770258,0.799305 -2.23091,0.816881 -3.148089,0.372195 -0.278325,-0.134943 -0.5833,-0.465275 -0.520573,-0.76816 0.06179,-0.29838 0.519191,-0.319116 0.778786,-0.478674 0.277535,0.146237 0.686716,0.160993 0.832604,0.438712 0.154473,0.294059 0.108811,0.720227 -0.08038,0.993243 -0.238374,0.343981 -0.654846,0.588019 -1.066741,0.662093 -0.561894,0.10105 -1.759598,-0.301151 -1.338174,-1.233522 0.149542,-0.330851 0.619484,-0.378867 0.929226,-0.568301 0.325011,0.142858 0.857579,0.09354 0.975034,0.428572 0.149599,0.426715 -0.04239,0.991108 -0.366934,1.305967 -0.901006,0.87411 -2.660201,1.257944 -3.844178,0.790088 -0.273392,-0.108033 -0.582755,-0.554658 -0.400808,-0.785546 0.300598,-0.381452 0.921615,-0.306736 1.382422,-0.460104 0.500911,0.193297 1.135819,0.18791 1.502733,0.579892 0.254988,0.272408 0.316521,0.823662 0.08486,1.116165 -0.649214,0.81972 -2.337568,0.878026 -3.153585,0.408147 -0.245178,-0.141179 -0.455419,-0.613259 -0.252443,-0.810349 0.381746,-0.370677 1.023797,-0.290462 1.535695,-0.435693 0.496467,0.143941 1.102973,0.0885 1.489401,0.431822 0.244777,0.217473 0.310794,0.729621 0.09687,0.977502 -0.528294,0.612141 -2.447988,1.165758 -3.264544,0.981292 -0.186144,-0.04205 -0.317871,-0.463453 -0.149202,-0.552721 0.506422,-0.268022 1.132039,-0.178004 1.698058,-0.267006 0.541648,0.193147 1.233,0.158648 1.624946,0.579443 0.286722,0.307827 0.328557,0.914269 0.08745,1.258992 -0.47284,0.676035 -2.408824,1.382772 -3.261249,1.124149 -0.22681,-0.06881 -0.340114,-0.557379 -0.147554,-0.695578 0.469621,-0.337042 1.123624,-0.272097 1.685436,-0.408146 0.542111,0.143767 1.209276,0.05631 1.626335,0.431301 0.278619,0.250514 0.332416,0.826866 0.09868,1.119703 -0.485037,0.607677 -2.346631,1.23756 -3.143893,0.697103 -0.239119,-0.162098 -0.207085,-0.69241 0.02358,-0.86633 0.502947,-0.37922 1.21095,-0.34735 1.816426,-0.521025 0.27897,0.07303 2.817969,0.169296 1.588167,1.56595 -0.478027,0.542883 -2.552195,1.4062 -3.404318,1.105594 -0.229026,-0.08079 -0.193311,-0.581004 -4.32e-4,-0.728579 0.508934,-0.389391 1.205135,-0.436124 1.807702,-0.654186 0.88787,-1.648424 2.361748,0.561685 1.885845,1.115758 -0.442302,0.514954 -1.13694,0.791773 -1.793255,0.96515 -0.615936,0.162711 -1.319144,0.248774 -1.911146,0.01344 -0.316895,-0.125976 -0.587368,-0.644622 -0.411357,-0.936704 0.297902,-0.494355 0.999042,-0.578312 1.498563,-0.867468 0.54978,0.09153 1.214683,-0.07428 1.64934,0.274584 1.428101,1.146236 -0.968758,2.124229 -1.392309,2.229725 -0.578195,0.144013 -1.256614,0.151625 -1.783025,-0.127555 -0.292576,-0.155166 -0.476324,-0.704019 -0.26367,-0.9579 0.386435,-0.461352 1.106818,-0.472935 1.660227,-0.709402 0.595407,0.141961 1.313888,0.03657 1.786222,0.425883 1.396116,1.150718 -0.951756,2.114532 -1.399754,2.226116 -0.578195,0.144013 -1.256614,0.151625 -1.783025,-0.127554 -0.292576,-0.155166 -0.476324,-0.704019 -0.26367,-0.9579 0.386435,-0.461352 1.106818,-0.472935 1.660227,-0.709402 0.595407,0.141961 1.313888,0.03657 1.786222,0.425883 1.396116,1.150718 -0.951756,2.114532 -1.399754,2.226116 -0.578195,0.144013 -1.247481,0.133678 -1.783025,-0.127554 -0.305597,-0.149067 -0.589164,-0.654561 -0.40114,-0.937858 0.308741,-0.465182 1.005165,-0.486317 1.507747,-0.729475 0.596819,0.141971 1.302642,0.05391 1.790458,0.425914 1.376337,1.049573 -0.399348,2.036927 -1.108948,2.224849 -0.577612,0.152967 -1.250716,0.13493 -1.788117,-0.126287 -0.305803,-0.148644 -0.567439,-0.641286 -0.40114,-0.937858 0.293093,-0.522693 0.993732,-0.670033 1.490598,-1.005049 0.589228,-0.05314 1.189516,-0.284864 1.767685,-0.159427 0.247063,0.0536 0.59592,0.454707 0.417116,0.633431 -0.738563,0.738234 -2.791995,0.844853 -3.576938,0.178376 -0.398646,-0.338481 -0.569738,-1.033476 -0.382143,-1.521633 0.27833,-0.724261 1.074763,-1.119363 1.612144,-1.679044 0.634871,-0.20122 1.238648,-0.609987 1.904614,-0.603659 0.255478,0.0024 0.59186,0.418803 0.442323,0.62596 -0.376338,0.521351 -1.016999,0.844377 -1.634091,1.025029 -0.30008,0.08785 -3.10364,0.572102 -2.326793,-1.218797 0.296915,-0.684491 1.078146,-1.031673 1.617219,-1.547509 0.636528,-0.152924 1.256657,-0.506089 1.909584,-0.45877 0.253977,0.01841 0.58364,0.422523 0.434081,0.628618 -0.63131,0.869963 -2.524245,1.511277 -3.549757,1.039178 -0.351504,-0.161817 -0.580156,-0.737196 -0.411543,-1.085491 0.312507,-0.645532 1.08108,-0.942739 1.621621,-1.414109 0.680993,-0.197761 1.334975,-0.553397 2.04298,-0.593282 0.23772,-0.01339 0.699963,0.256172 0.557301,0.446796 -0.528591,0.706295 -2.465596,1.15223 -3.238931,0.79059 -0.30097,-0.140745 -0.460231,-0.683315 -0.273886,-0.958393 0.408002,-0.602284 1.186167,-0.842528 1.779251,-1.263792 0.726234,-0.195218 1.430769,-0.507409 2.178702,-0.585655 0.278615,-0.02915 0.909418,0.01926 0.794266,0.274634 -0.208134,0.461581 -0.795032,0.68024 -1.284045,0.81155 -0.568441,0.152637 -1.218084,0.22306 -1.765716,0.0074 -0.265567,-0.104596 -0.47699,-0.609646 -0.274703,-0.811006 0.501902,-0.499602 1.297295,-0.568383 1.945943,-0.852574 0.723439,-0.0969 1.441666,-0.333351 2.170317,-0.290689 0.233836,0.01369 0.705786,0.283687 0.54023,0.449392 -0.456392,0.456804 -1.144531,0.629859 -1.771773,0.78326 -0.659023,0.161173 -1.367597,0.29295 -2.030055,0.14653 -0.23314,-0.05153 -0.459194,-0.496295 -0.28339,-0.657859 0.567504,-0.521537 1.390408,-0.665591 2.085612,-0.998387 0.77024,-0.144793 1.528069,-0.393243 2.31072,-0.43438 0.236445,-0.01243 0.792494,0.08697 0.653406,0.278581 -0.323859,0.446161 -0.912727,0.656873 -1.442698,0.80878 -0.608833,0.174512 -1.272099,0.266029 -1.8943,0.147712 -0.268402,-0.05104 -0.707733,-0.39179 -0.545577,-0.611677 0.4064,-0.551085 1.178652,-0.697281 1.767979,-1.045922 0.772777,-0.144872 1.532094,-0.433042 2.318333,-0.434617 0.303731,-6.09e-4 0.921344,0.148118 0.804227,0.428362 -0.23049,0.551531 -0.8776,0.857718 -1.433513,1.07743 -0.641171,0.253408 -1.368039,0.419395 -2.046707,0.298047 -0.310796,-0.05557 -0.740759,-0.505407 -0.559742,-0.764086 0.429207,-0.613352 1.276805,-0.781949 1.915208,-1.172924 0.821628,-0.145628 1.631133,-0.470639 2.464884,-0.436883 2.487385,0.100704 -0.411533,1.620406 -0.487929,1.647275 -0.64809,0.227939 -1.395565,0.348646 -2.055084,0.156262 -0.343168,-0.100102 -0.741584,-0.61272 -0.554994,-0.917628 0.402678,-0.658017 1.275562,-0.868035 1.913342,-1.302052 0.873547,-0.09926 1.746695,-0.393492 2.62064,-0.297796 1.642846,0.179892 1.597394,1.274887 0.08831,1.784867 -0.65555,0.221536 -1.423634,0.249911 -2.07583,0.01869 -0.417127,-0.147885 -0.93464,-0.617806 -0.819002,-1.044997 0.170824,-0.631061 0.971483,-0.875156 1.457224,-1.312733 0.830413,-0.101503 1.656796,-0.364466 2.491238,-0.304509 0.926154,0.06655 2.200213,0.941379 0.220542,1.369234 -0.676798,0.146272 -1.438452,0.141612 -2.072819,-0.13593 -0.464109,-0.203052 -1.021093,-0.684927 -0.949718,-1.186458 0.08687,-0.610383 0.87006,-0.873756 1.30509,-1.310634 0.78434,-0.103054 1.562347,-0.334564 2.35302,-0.309163 0.424734,0.01364 1.069583,0.01975 1.202501,0.423385 0.112113,0.340453 -0.488005,0.620562 -0.843416,0.667045 -0.283119,0.03703 -3.191565,-0.07817 -3.148429,-1.314122 0.01919,-0.549762 0.766533,-0.789211 1.1498,-1.183816 0.78461,-0.102259 1.563009,-0.332708 2.35383,-0.306778 0.435221,0.01427 2.630059,0.695201 0.208614,1.092314 -0.725903,0.119047 -1.497173,0.06559 -2.202045,-0.144802 -0.476953,-0.14236 -1.154915,-0.379271 -1.210832,-0.873866 -0.05425,-0.479869 0.66183,-0.703456 0.992745,-1.055184 0.736785,-0.101891 1.467012,-0.331629 2.210357,-0.305674 0.425224,0.01485 1.118964,0.0079 1.203661,0.424883 0.07571,0.372707 -0.629091,0.521717 -1.009267,0.532125 -0.133503,0.0037 -3.498911,-0.368783 -3.676738,-1.307505 -0.08418,-0.444394 0.663041,-0.61536 0.994561,-0.92304 0.782029,-0.0988 1.558644,-0.260834 2.346087,-0.296394 0.439815,-0.01986 1.19485,-0.292662 1.314267,0.131096 0.112811,0.400314 -0.71209,0.494007 -1.125632,0.538284 -0.819134,0.0877 -1.663671,0.03038 -2.466666,-0.153664 -0.4941,-0.113246 -1.282851,-0.215171 -1.340114,-0.718838 -0.06197,-0.545043 0.747638,-0.802924 1.121458,-1.204385 0.826346,-0.243001 1.642452,-0.524014 2.479039,-0.7290011 0.378853,-0.092829 1.24291,-0.5432815 1.158858,-0.1623851 -0.09724,0.4406762 -0.795219,0.4750002 -1.241947,0.5389182 -0.810508,0.115968 -1.647665,0.118811 -2.456267,-0.0098 -0.437621,-0.06959 -1.216705,-0.128873 -1.200155,-0.571684 0.02183,-0.5841262 0.844558,-0.8083565 1.266838,-1.2125348 0.777943,-0.1952414 1.539101,-0.4774572 2.33383,-0.5857242 0.348143,-0.047428 1.161377,-0.2068867 1.046614,0.1252013 -0.150921,0.4367177 -0.81911,0.4752252 -1.276575,0.5402332 -0.810618,0.115193 -1.643213,0.08674 -2.456266,-0.00978 -0.417429,-0.049553 -1.167331,-0.00299 -1.188076,-0.422841 -0.02409,-0.4875619 0.747066,-0.6285546 1.120598,-0.9428318 0.726705,-0.1922627 1.440986,-0.4398468 2.180115,-0.576788 0.337712,-0.062569 1.136342,-0.3446555 1.03022,-0.018002 -0.317735,0.9780169 -3.63808,0.8224113 -3.707544,0.8173597 -0.508978,-0.037014 -1.190173,0.00301 -1.471421,-0.4228182 -0.213557,-0.3233376 0.332371,-0.7001034 0.498556,-1.050155 0.594893,-0.2048444 1.170614,-0.4774848 1.78468,-0.614533 C 32.299335,5.237396 32.953545,4.9541423 33,5.2972458 c 0.05219,0.3854877 -0.575435,0.5700272 -0.948668,0.679672 -0.192923,0.056675 -3.367795,0.5445035 -3.919761,0.1472317 -0.228455,-0.1644276 0.221441,-0.5175669 0.332161,-0.7763503 0.548827,-0.1558339 1.080816,-0.3932097 1.646479,-0.4675016 0.304408,-0.03998 0.973683,-0.1691552 0.911627,0.1315303 -0.21412,1.037501 -3.50053,1.2386253 -3.573382,1.2437075 -0.581735,0.040581 -1.253727,0.1822026 -1.744387,-0.1329401 -0.236313,-0.1517801 0.220728,-0.5165307 0.331092,-0.7747961 0.645886,-0.1551941 1.277143,-0.3950606 1.937658,-0.4655822 0.335372,-0.035807 2.636822,0.04943 0.385549,0.9410489 -0.524356,0.2076715 -3.305172,0.7393408 -4.08287,0.2993294 -0.22472,-0.1271437 0.116496,-0.5030779 0.174745,-0.7546168 0.553322,-0.1625603 1.088142,-0.4128038 1.659968,-0.4876809 0.350191,-0.045855 1.01522,-0.2186728 1.051202,0.1326697 0.04259,0.4158802 -0.569206,0.651041 -0.954268,0.8138216 -0.526212,0.2224501 -3.244369,0.9213785 -4.064288,0.5820142 -0.224096,-0.092753 0.0072,-0.485012 0.01085,-0.727518 0.556928,-0.1717577 1.093076,-0.4383179 1.670785,-0.5152732 0.0078,-0.00104 2.755327,-0.027889 0.54387,0.937304 -0.727222,0.3173971 -3.054345,0.6841812 -3.950012,0.3049937 -0.182677,-0.077338 0.01499,-0.3964632 0.02249,-0.5946948 0.563576,-0.074493 1.122369,-0.2351186 1.690727,-0.2234786 0.451591,0.00925 1.05087,-0.073985 1.324696,0.2852348 0.18952,0.2486233 -0.220262,0.6607617 -0.504698,0.7904834 -0.832444,0.3796494 -3.122116,0.6090005 -4.094426,0.455587 C 18.713457,7.0987704 18.678918,6.8914978 18.589805,6.776526 19.1033,6.6662687 19.605461,6.4260539 20.13029,6.445754 c 0.257249,0.00966 2.352553,0.4717918 0.678422,1.2201004 -0.550519,0.2460726 -2.679725,0.478834 -3.392708,0.1741059 -0.145482,-0.062179 0.02063,-0.3157528 0.03094,-0.4736292 C 17.964632,7.3449501 18.490845,7.2061949 19,7.3021879 c 0.620375,0.1169615 2.255666,0.7681053 0.52135,1.5048763 -0.696731,0.2959846 -2.986991,0.5029204 -3.829325,0.029653 -0.159199,-0.089447 0.14017,-0.3372445 0.210254,-0.5058667 0.607408,0.039327 1.234209,-0.039277 1.822223,0.1179823 0.341199,0.091251 2.491538,0.8428786 0.807385,1.6338198 -0.625242,0.293637 -2.780764,0.526833 -3.556609,0.04096 -0.155338,-0.09728 0.141811,-0.3380291 0.212716,-0.5070438 0.563803,0.087001 1.170278,0.028914 1.691409,0.2610029 0.59316,0.2641669 2.074984,1.3138539 0.8118,2.1737639 -0.643902,0.438336 -2.565277,0.605891 -3.171205,-0.221328 -0.168099,-0.229491 0.248204,-0.511946 0.372306,-0.767919 0.614057,0.08178 1.266689,0.01605 1.842173,0.245341 0.5225,0.20818 1.102999,0.513925 1.341697,1.023207 0.153534,0.327576 -0.05677,0.865961 -0.386854,1.014027 -0.721439,0.323616 -2.587464,-0.05693 -2.778804,-1.112319 -0.07418,-0.409139 0.469272,-0.686563 0.703908,-1.029845 0.652335,-0.01274 1.317143,-0.165816 1.957005,-0.03822 0.539896,0.107659 1.079761,0.350941 1.484222,0.724425 0.143836,0.13282 0.125985,0.556392 -0.06792,0.583401 -0.907607,0.126418 -2.427378,-0.632418 -2.921044,-1.374161 -0.155711,-0.233958 0.05812,-0.559062 0.08718,-0.838593 1.025452,0.03013 1.907352,-0.23811 2.500647,0.929436 0.116254,0.228777 9.07e-4,0.664993 -0.247615,0.728955 -0.954445,0.245642 -2.646782,-0.463838 -3.191577,-1.245748 -0.187315,-0.268841 0.05481,-0.653027 0.08222,-0.9795405 0.567486,-0.034299 1.145553,-0.217239 1.702458,-0.102898 0.50006,0.1026701 1.005782,0.3491387 1.346855,0.7289685 0.123116,0.137106 -0.06587,0.512715 -0.249134,0.493488 -0.939673,-0.09858 -2.639016,-1.1013539 -3.041053,-2.0115313 -0.154725,-0.3502844 0.16405,-0.7480934 0.246074,-1.1221401 0.569515,0.01822 1.156703,-0.087292 1.708544,0.054659 0.491105,0.1263275 0.998618,0.3494267 1.335569,0.7283818 0.122443,0.1377067 -0.06587,0.5127146 -0.249134,0.4934882 -0.915107,-0.096005 -2.685787,-1.0046974 -2.769709,-2.170186 -0.03445,-0.4785103 0.573846,-0.7689851 0.860769,-1.1534777 0.749215,0.036038 1.515483,-0.054859 2.247646,0.1081128 0.534562,0.1189881 1.133717,0.2936075 1.476367,0.7208144 0.155386,0.1937308 -0.140956,0.6120378 -0.388149,0.6359463 -0.654202,0.063274 -3.002427,-0.481915 -3.315105,-1.4267063 -0.119676,-0.3616148 0.465121,-0.603335 0.697682,-0.9050025 0.750407,0.0872 1.526027,0.049919 2.251221,0.2615992 0.586309,0.1711402 1.196968,0.4208449 1.614366,0.8667437 0.148917,0.1590853 -0.01262,0.6021675 -0.230315,0.6118123 -0.675756,0.029939 -2.483291,-0.7299141 -2.500744,-1.7144038 -0.0074,-0.4159662 0.583355,-0.5933183 0.875032,-0.8899775 0.796772,0.1381268 1.625605,0.1514337 2.390317,0.4143806 0.637896,0.2193412 1.309063,0.5028514 1.753351,1.0104239 0.168894,0.1929509 0.02762,0.6915019 -0.224978,0.7356501 -0.831375,0.1453043 -2.897035,-0.5427706 -3.202917,-1.540075 -0.111561,-0.3637382 0.468825,-0.5993404 0.703238,-0.8990106 0.799959,0.1357658 1.637405,0.1298051 2.399878,0.4072973 0.696069,0.2533256 1.397864,0.6097592 1.89745,1.1566599 0.189754,0.2077251 0.200803,0.7749466 -0.0727,0.8409047 -0.855339,0.2062712 -3.119445,-0.5106574 -3.493624,-1.5027187 -0.134149,-0.355669 0.465047,-0.6014288 0.69757,-0.9021432 0.847078,0.1362239 1.729284,0.1314809 2.541235,0.4086716 0.73885,0.2522352 1.489545,0.598754 2.037813,1.1545637 0.197669,0.2003881 0.203712,0.7708074 -0.06871,0.8416266 -0.832241,0.2163515 -2.914443,-0.5305506 -3.213576,-1.5058513 -0.111562,-0.3637382 0.468825,-0.5993404 0.703237,-0.8990106 0.847078,0.1362239 1.729284,0.1314809 2.541235,0.4086716 0.73885,0.2522352 1.466535,0.6224328 2.037813,1.1545637 C 28.543146,5.3707892 28.683145,5.9262618 28.420335,6 27.577853,6.2363795 25.506965,5.508365 25.203984,4.5205179 25.092423,4.1567797 25.672809,3.9211775 25.907222,3.6215073 c 0.799959,0.1357658 1.640475,0.1215089 2.399877,0.4072973 0.656959,0.2472357 1.334994,0.5983769 1.758965,1.1578137 0.179707,0.2371268 0.06192,0.7936227 -0.227376,0.8631428 -0.731135,0.175699 -2.827121,-0.4191914 -2.93302,-1.5386491 -0.03918,-0.4142063 0.578838,-0.597792 0.868257,-0.896688 0.749716,0.1376869 1.543096,0.1257956 2.24915,0.4130606 0.615138,0.2502756 1.243567,0.6131542 1.619199,1.1608169 0.168215,0.2452535 0.05592,0.7875791 -0.232157,0.8614596 -0.651747,0.1671487 -2.768941,-0.4906236 -2.790163,-1.5386491 -0.0092,-0.4535626 0.67969,-0.6010283 1.019534,-0.9015424 0.793966,0.139745 1.63195,0.1234496 2.381897,0.419235 0.617976,0.2437351 1.276676,0.5913252 1.620889,1.1594969 0.165953,0.2739285 -0.07261,0.8103247 -0.385155,0.8802558 -0.763124,0.170745 -2.810938,-0.5785171 -3.190436,-1.3991904 -0.119004,-0.257349 0.377887,-0.422804 0.566831,-0.634206 0.706861,0.2368368 1.464792,0.3559929 2.120583,0.7105105 0.607034,0.3281599 1.270827,0.7022492 1.607254,1.3047414 0.155721,0.2788753 -0.07721,0.8103525 -0.389946,0.8752874 -0.591503,0.1228165 -3.075864,-0.468509 -3.333294,-1.3991904 -0.09652,-0.3489555 0.582915,-0.4296006 0.874372,-0.6444009 0.746247,0.2404537 1.557159,0.3338718 2.238741,0.7213611 0.542057,0.3081665 1.164254,0.7106333 1.334965,1.310341 0.104002,0.3653594 -0.333377,0.8285329 -0.707696,0.8932532 -0.166865,0.028851 -3.207536,-0.3413764 -3.311466,-1.277386 -0.04265,-0.384099 0.693253,-0.3417667 1.039879,-0.5126501 0.74066,0.2916809 1.556323,0.4385165 2.22198,0.8750428 0.550058,0.3607185 1.163759,0.8199211 1.332254,1.4557604 0.09713,0.3665334 -0.337444,0.8239787 -0.711219,0.8878043 -0.166903,0.0285 -3.207509,-0.3411359 -3.311465,-1.2773859 -0.04265,-0.384099 0.693252,-0.3417668 1.039879,-0.5126502 0.74066,0.291681 1.564809,0.425841 2.221979,0.8750428 0.761029,0.520193 2.200745,2.0164727 0.182772,2.4905767 -0.732466,0.172087 -1.536628,-0.0026 -2.241529,-0.265754 -0.494683,-0.184655 -1.153502,-0.497549 -1.209812,-1.0225615 -0.04319,-0.4027179 0.687472,-0.4284523 1.031209,-0.6426784 0.745787,0.2896629 1.588501,0.400924 2.23736,0.8689887 0.634072,0.4573972 2.278528,2.2386092 0.182772,2.6334342 -0.748863,0.14108 -1.534809,-0.144418 -2.249018,-0.410133 -0.462206,-0.171959 -1.141162,-0.381265 -1.195612,-0.871408 -0.04127,-0.371523 0.704849,-0.249236 1.057274,-0.373854 0.736765,0.341715 1.554409,0.546181 2.210294,1.025146 0.432244,0.315649 2.392758,2.08776 0.158264,2.217247 -0.768372,0.04453 -1.527834,-0.272374 -2.237365,-0.570609 -0.452485,-0.190191 -1.138549,-0.381072 -1.188467,-0.869359 -0.03731,-0.364982 0.71722,-0.154955 1.07583,-0.232432 0.730579,0.342194 1.528153,0.56778 2.191738,1.026581 0.571436,0.395091 2.312028,1.849645 0.158264,2.07439 -0.752741,0.07855 -1.51275,-0.184816 -2.23022,-0.425702 -0.439048,-0.147407 -1.07165,-0.273223 -1.18726,-0.721694 -0.08156,-0.316395 0.601855,-0.254567 0.902782,-0.38185 0.687217,0.244614 1.419591,0.387631 2.06165,0.733843 0.386505,0.208413 2.387605,1.460005 0.318556,1.79188 -0.446947,0.07169 -3.249626,-0.251191 -3.699733,-0.997678 -0.153035,-0.253805 0.480117,-0.347612 0.720176,-0.521419 0.694139,0.193845 1.434978,0.264947 2.082417,0.581534 0.684584,0.33475 2.288495,1.488602 0.174489,1.798229 -0.06499,0.0095 -3.3787,-0.283701 -3.814681,-0.70643 -0.189662,-0.183896 0.500262,-0.169986 0.750393,-0.254979 0.724359,0.197575 1.484562,0.29326 2.173077,0.592726 0.4501,0.195768 1.239862,0.381226 1.188468,0.869359 -0.04986,0.473563 -0.858427,0.484579 -1.33385,0.51145 -0.322085,0.0182 -3.538735,-0.279569 -4.069926,-0.865636 -0.185391,-0.204544 0.486765,-0.260559 0.730148,-0.390839 0.733148,0.196651 1.502304,0.289665 2.199446,0.589952 0.855274,0.368401 2.237266,1.338343 0.0011,1.381593 -0.125372,0.0024 -3.475742,-0.467808 -3.934962,-1.009247 -0.172708,-0.20363 0.507168,-0.167191 0.760752,-0.250786 0.679937,0.245811 1.398852,0.402906 2.039811,0.737434 0.901631,0.470576 1.912619,1.342245 -0.151315,1.379742 -0.222361,0.004 -3.578343,-0.524998 -4.073584,-1.009278 -0.189943,-0.185739 0.504344,-0.16717 0.756516,-0.250756 -0.596659,0.726793 3.62407,0.391337 3.361545,1.604942 -0.110312,0.509954 -0.958447,0.487247 -1.47968,0.510431 -2.084226,0.0927 -3.35169,-0.483671 -5.326022,-0.578144 -0.232482,-0.01112 0.445191,0.135987 0.667787,0.203981 0.750223,0.334392 1.50075,0.668103 2.25067,1.003175 0.52583,0.234945 1.216411,0.257458 1.576578,0.706876 0.194954,0.243264 -0.62313,0.155797 -0.929859,0.100103 -0.879911,-0.159767 -1.721374,-0.485852 -2.579588,-0.737322 -0.622549,-0.182416 -1.279412,-0.280091 -1.862568,-0.564297 -0.239954,-0.116944 0.53298,0.03079 0.79947,0.04619 0.807224,0.340104 1.62817,0.649318 2.421672,1.020311 0.544204,0.254437 1.272897,0.341907 1.58709,0.853942 0.165037,0.268957 -0.60324,0.284592 -0.915666,0.240266 -0.04734,-0.0067 -3.789463,-1.116434 -4.31542,-1.157007 -0.298251,-0.02301 0.551096,0.23286 0.826644,0.349289 0.752758,0.430293 1.52075,0.834965 2.258273,1.290878 0.497568,0.30758 1.201452,0.465174 1.443752,0.997593 0.131653,0.289288 -0.639868,0.161027 -0.949373,0.08873 -0.843452,-0.197018 -1.629189,-0.588776 -2.444395,-0.881465 -0.524927,-0.188467 -1.050751,-0.374426 -1.575998,-0.562001 -0.323923,-0.115678 0.648018,0.230876 0.972028,0.346313 0.75609,0.432181 1.549124,0.80534 2.268271,1.296542 0.480103,0.327926 1.275133,0.568842 1.312234,1.149063 0.02647,0.413982 -0.816209,0.294485 -1.224587,0.221625 -0.859288,-0.153307 -1.657578,-0.551549 -2.466233,-0.880113 -0.497587,-0.202174 -1.192494,-0.236494 -1.446561,-0.709692 -0.172295,-0.320899 0.727735,0.03239 1.091602,0.04858 0.813423,0.389144 1.652556,0.728571 2.440269,1.167431 0.513331,0.285993 1.287262,0.436437 1.451314,1.000695 0.103866,0.357247 -0.681735,0.411231 -1.051836,0.373307 -0.857474,-0.08787 -1.658245,-0.47242 -2.4792,-0.735129 -0.53312,-0.1706 -1.1472,-0.21131 -1.581586,-0.56434 -0.243748,-0.198095 0.627503,0.02929 0.941254,0.04394 0.809851,0.340517 1.633526,0.649862 2.429552,1.02155 0.544332,0.254165 1.31007,0.320879 1.587091,0.853942 0.156187,0.300546 -0.535812,0.496387 -0.873786,0.518649 -0.952164,0.06272 -2.985436,-0.425241 -4.064141,-0.574639 -0.315999,-0.04377 0.625566,0.125499 0.938349,0.188249 0.805758,0.386498 1.642502,0.714124 2.417275,1.159493 0.567608,0.326283 1.337022,0.544803 1.594625,1.1467 0.134011,0.31312 -0.546244,0.531045 -0.886108,0.508769 -0.06547,-0.0043 -3.599877,-1.007917 -4.084111,-1.295221 -0.280328,-0.166324 0.638879,0.129696 0.958319,0.194545 0.807214,0.435118 1.626469,0.848602 2.421641,1.305355 0.54095,0.310726 1.267778,0.458432 1.584578,0.995848 0.160553,0.27236 -0.639373,0.174664 -0.944146,0.09057 -0.853491,-0.235486 -1.636287,-0.677034 -2.449594,-1.026937 -0.529795,-0.22793 -1.142047,-0.330525 -1.579445,-0.706446 -0.206389,-0.177381 0.543283,0.03292 0.814924,0.04938 0.762221,0.388614 1.524442,0.777228 2.286662,1.165842 0.07171,0.03586 -0.0297,0.238692 -0.101417,0.202835 l 0,0 c -0.761589,-0.373291 -1.523178,-0.746581 -2.284767,-1.119872 -0.204549,-0.174016 -0.876434,-0.577407 -0.613647,-0.522048 0.561714,0.11833 1.035465,0.496746 1.563412,0.722125 0.796081,0.339844 1.610819,0.634745 2.407549,0.973063 0.262989,0.111673 0.993613,0.554316 0.770139,0.376288 -0.483314,-0.385028 -1.021073,-0.698783 -1.558278,-1.004152 -0.795443,-0.452161 -1.623668,-0.844049 -2.435502,-1.266073 -0.251989,-0.220866 -1.089237,-0.627801 -0.755966,-0.662598 0.552001,-0.05763 1.033584,0.406541 1.56127,0.578517 0.778312,0.253656 1.551838,0.53752 2.354618,0.697691 2.214325,0.441802 -0.678206,-1.177905 -0.720054,-1.201675 -0.778878,-0.442402 -1.626579,-0.750814 -2.439868,-1.126221 -0.258646,-0.222965 -1.084243,-0.522067 -0.775937,-0.668894 0.478517,-0.227888 1.037992,0.21854 1.562565,0.294272 0.788179,0.113789 1.578822,0.219272 2.373294,0.273946 0.280056,0.01927 1.013607,0.168212 0.8405,-0.05278 -0.365431,-0.466517 -1.017724,-0.611974 -1.555766,-0.860344 -0.792128,-0.365661 -1.618394,-0.6523 -2.427591,-0.97845 -0.257677,-0.17583 -1.084332,-0.547643 -0.773031,-0.527492 0.553843,0.03585 1.033118,0.407979 1.56127,0.578517 0.785718,0.253706 1.574143,0.504695 2.377943,0.693443 1.747658,0.410385 0.795688,-0.217417 -0.457665,-0.911712 -0.776503,-0.430145 -1.611249,-0.745522 -2.416873,-1.118283 -0.3028,-0.174282 -1.233853,-0.649891 -0.908398,-0.522845 4.294518,1.676426 -2.497537,-0.373491 3.801492,1.553052 0.345541,0.105683 1.137573,0.574787 1.061126,0.221625 -0.119626,-0.552646 -0.790951,-0.819673 -1.259195,-1.136651 -0.726646,-0.491904 -1.535437,-0.849925 -2.303156,-1.274887 -0.24742,-0.265515 -1.093371,-0.704705 -0.742259,-0.796544 0.538891,-0.140956 1.041973,0.3944 1.566859,0.580856 0.801731,0.284799 1.617402,0.530651 2.412748,0.832821 0.265376,0.100822 0.968849,0.571929 0.764913,0.374446 -0.414929,-0.401801 -0.920874,-0.700681 -1.41339,-1.002406 -0.751508,-0.460389 -1.542104,-0.853701 -2.313156,-1.280552 -0.200643,-0.264522 -0.918295,-0.692865 -0.601927,-0.793568 0.562201,-0.178953 1.144296,0.288162 1.714577,0.439402 0.848422,0.225004 1.695819,0.453963 2.541431,0.689306 0.772676,0.215044 2.306898,0.792502 -0.757147,-0.620078 -0.794661,-0.366353 -1.623647,-0.653126 -2.435471,-0.979689 -0.209701,-0.175081 -0.902023,-0.537144 -0.629102,-0.525241 0.646052,0.02817 1.230246,0.399816 1.851718,0.578559 0.850469,0.244607 1.720849,0.420215 2.563269,0.69125 0.277388,0.08925 1.052158,0.500833 0.784427,0.385818 -0.528176,-0.2269 -1.040521,-0.48925 -1.566279,-0.721696 -0.770028,-0.340441 -1.547173,-0.66455 -2.320759,-0.996825 -0.158356,-0.217721 -0.738298,-0.596681 -0.47507,-0.653162 0.703127,-0.15087 1.421911,0.219604 2.13691,0.29658 1.034038,0.111323 2.06959,0.220163 3.108496,0.268133 1.256006,0.058 2.332425,0.07804 0.273498,-0.908432 -0.666222,-0.319199 -1.403946,-0.460321 -2.105919,-0.690481 -0.224018,-0.08358 -0.896331,-0.333643 -0.672054,-0.250756 1.769684,0.654037 1.785957,0.773207 3.926415,0.990723 1.203509,0.122302 1.728293,-0.06789 0.1344,-0.905973 -0.613218,-0.322436 -1.306793,-0.460758 -1.960189,-0.691137 -0.222607,-0.08359 -0.885348,-0.346823 -0.667819,-0.250786 1.562177,0.689688 1.83481,0.791227 3.779323,0.990753 1.200418,0.123175 1.84076,-0.09637 0.0011,-0.904121 -0.658727,-0.289237 -1.390845,-0.368604 -2.086268,-0.552906 -0.232808,-0.03504 -0.90427,-0.219381 -0.698424,-0.105124 1.219816,0.677072 2.565318,0.767714 3.930074,0.848649 0.412286,0.02445 1.174286,0.348154 1.237579,-0.05998 0.07074,-0.456169 -0.673881,-0.660927 -1.097246,-0.844927 -0.66739,-0.290056 -1.408425,-0.366754 -2.112638,-0.550131 -0.226059,-0.08499 -0.912748,-0.312456 -0.678178,-0.254979 1.588255,0.389168 1.718089,0.767317 3.613891,0.722141 1.681894,-0.04008 0.903235,-0.825239 -0.111226,-1.344628 -0.592835,-0.303522 -1.278389,-0.374215 -1.917583,-0.561323 -0.236132,0.01667 -0.866403,-0.126257 -0.708396,0.05001 0.656637,0.732517 2.668894,1.022195 3.443124,1.002321 1.725004,-0.04428 0.395403,-0.993055 -0.252872,-1.350977 -0.600865,-0.331746 -1.292233,-0.463152 -1.93835,-0.694728 -0.270501,-0.03205 -0.927337,-0.342673 -0.811504,-0.09614 0.359732,0.765647 2.806706,1.132097 3.153949,1.138318 0.347591,0.0062 0.999279,-0.03059 0.972341,-0.377195 -0.04325,-0.556489 -0.642555,-0.942566 -1.099791,-1.2627 -0.630538,-0.441472 -1.395984,-0.648946 -2.093976,-0.973419 -0.308057,-0.07748 -1.010548,-0.538113 -0.92417,-0.232432 0.125528,0.444226 0.676367,0.655309 1.097246,0.844926 0.646359,0.291202 1.340815,0.527843 2.04835,0.572249 1.944183,0.122019 0.460453,-1.342626 -0.12745,-1.782753 -0.611858,-0.458061 -1.383614,-0.649903 -2.075421,-0.974854 -0.359254,-0.03359 -2.707102,-0.422811 0.147376,0.754737 0.642533,0.265062 1.343863,0.502567 2.036697,0.447011 1.951382,-0.156475 0.510998,-1.757986 -0.102943,-2.223709 -0.588478,-0.4464078 -1.365569,-0.5635314 -2.048353,-0.8452971 -0.322931,0.071488 -0.998395,-0.1149567 -0.968792,0.2144645 0.04337,0.4825885 0.627783,0.7931526 1.075903,0.9774386 0.637193,0.262041 1.360519,0.391008 2.044185,0.305674 1.855402,-0.231587 0.671668,-1.5318297 -0.102943,-2.0808515 -0.605869,-0.4294224 -1.375823,-0.5594953 -2.063734,-0.8392429 -0.32004,0.019593 -1.006594,-0.2584753 -0.960121,0.058778 0.06661,0.4547169 0.670606,0.6582781 1.092017,0.8416267 0.591702,0.257439 1.237324,0.4743342 1.882231,0.452416 C 35.06364,9.0399073 35.559418,8.7985034 35.481717,8.5093116 35.319916,7.9071109 34.758568,7.4579902 34.242543,7.1079291 33.62799,6.6910291 32.86672,6.5484338 32.178808,6.2686862 31.858768,6.288279 31.172214,6.0102109 31.218687,6.3274646 31.340443,7.1586445 33.943834,7.6294405 34.192936,7.6215073 34.492085,7.6119801 34.99638,7.3738747 34.913811,7.086189 34.751402,6.5203273 34.182279,6.1277893 33.677347,5.8251015 33.058177,5.4539321 32.312698,5.3536279 31.630374,5.1178911 31.350403,5.1888051 30.6993,5.0565844 30.79046,5.3306331 c 0.260216,0.7822723 2.357188,1.4785362 2.952421,1.4579524 0.24124,-0.00834 0.5894,-0.3451186 0.467197,-0.553284 C 33.874155,5.6630759 33.248163,5.3020319 32.674474,4.9686144 32.094648,4.6316296 31.42153,4.4899071 30.795058,4.2505534 c -0.192009,0.074312 -0.675488,0.042667 -0.576027,0.2229368 0.378497,0.6860065 2.076737,1.4828829 2.809564,1.4579525 0.24102,-0.0082 0.6001,-0.343999 0.471988,-0.5483157 -0.33527,-0.5346961 -0.940388,-0.8811241 -1.521968,-1.1262173 -0.685879,-0.289048 -1.459688,-0.2919386 -2.189532,-0.4379079 -0.326822,0.1756764 -0.970889,0.1561074 -0.980465,0.5270291 -0.0214,0.8288406 1.809361,1.625462 2.352694,1.604208 0.220114,-0.00861 0.465593,-0.3866481 0.339271,-0.5671119 C 31.138557,4.865938 30.554621,4.5128184 29.976925,4.2582297 29.341122,3.978033 28.619216,3.9621749 27.940361,3.8141474 c -0.28201,0.1772945 -0.864166,0.1992669 -0.846029,0.5318835 0.05091,0.9337015 1.873143,1.6263671 2.495551,1.604208 0.220486,-0.00785 0.480048,-0.3917015 0.344053,-0.5654286 C 29.519941,4.8559521 28.88559,4.5120911 28.264329,4.2569097 27.580546,3.9760472 26.816629,3.9570127 26.092778,3.8070642 25.851,3.9835844 25.279084,4.0506032 25.367445,4.3366249 25.588389,5.0518197 27.48049,6.027172 28.151094,6 28.356965,5.9916584 28.379246,5.5266213 28.228016,5.386686 27.673888,4.8739424 26.974054,4.5170364 26.26583,4.2555354 25.528196,3.9831751 24.721891,3.9565546 23.949921,3.8070642 23.708143,3.9835844 23.136227,4.0506032 23.224587,4.3366249 23.455552,5.084253 25.318389,5.9994295 26.011011,5.9736308 26.219458,5.9658665 26.376662,5.5330247 26.228016,5.386686 25.690021,4.8570401 24.974054,4.5170364 24.26583,4.2555354 23.528196,3.9831751 22.721891,3.9565546 21.949921,3.8070642 c -0.243667,0.175476 -0.841064,0.2470512 -0.731001,0.5264282 0.304718,0.7734719 2.346774,1.6660274 3.077805,1.6401384 0.20823,-0.00737 0.355253,-0.4354125 0.213011,-0.5876667 C 24.022974,4.8649375 23.355868,4.5193613 22.692901,4.2569097 22.00558,3.9848171 21.2452,3.9570127 20.52135,3.8070642 c -0.241778,0.1765202 -0.813695,0.243539 -0.725334,0.5295607 0.263013,0.8513685 2.058098,1.5719841 2.797084,1.6027822 0.17806,0.00742 0.469284,-0.2780856 0.34645,-0.407207 C 22.492534,5.0623042 21.872303,4.7684406 21.264329,4.542624 20.568885,4.2843184 19.810255,4.2474491 19.083218,4.0998617 18.803467,4.279393 18.251406,4.3061351 18.243964,4.6384556 c -0.01833,0.818464 1.52576,1.5901292 2.070685,1.7141677 0.136565,0.031085 0.444165,-0.1504809 0.341113,-0.2453306 C 20.22711,5.7127572 19.681354,5.4397344 19.127271,5.2597507 18.474846,5.047822 17.770943,5.0531978 17.092778,4.9499213 c -0.24363,0.174523 -0.826439,0.2395196 -0.730889,0.5235689 0.301915,0.8975282 2.32006,1.362784 2.970609,1.4304366 0.17192,0.017879 0.590069,-0.097841 0.468994,-0.2211965 C 19.439204,6.3136191 18.9214,6.1046324 18.420716,5.9749732 17.760562,5.8040169 17.062004,5.8565722 16.382648,5.7973717 c -0.997634,0.9894584 -1.434994,0.868045 0.0968,2.2335541 0.397736,0.354559 0.923565,0.5423779 1.42283,0.7284965 0.103566,0.038608 0.406438,-0.00627 0.322295,-0.07794 C 17.864125,8.3744699 17.435781,8.1372107 16.988714,7.9812923 16.531456,7.82182 16.032505,7.8272554 15.5544,7.7502369 c -0.471554,1.2723321 -0.657862,0.9603925 0.925049,2.1378317 0.427523,0.3180104 0.923565,0.5423784 1.42283,0.7284964 0.103566,0.03861 0.406023,-0.0058 0.322295,-0.07794 C 17.868453,10.231736 17.450143,9.974573 17,9.8390219 16.539087,9.7002277 16.039734,9.7704232 15.559601,9.7361239 c -0.06783,0.2449151 -0.347415,0.5252901 -0.203495,0.7347451 0.461418,0.671527 1.978047,1.357131 2.808422,1.325681 0.175048,-0.0066 0.400814,-0.25656 0.323815,-0.413902 -0.182455,-0.372831 -0.562322,-0.636296 -0.931043,-0.826919 -0.345106,-0.178415 -0.759826,-0.16243 -1.13974,-0.243645 -0.06618,0.196659 -0.313785,0.417437 -0.198529,0.589978 0.379466,0.568067 1.805252,1.373032 2.507528,1.482981 0.1152,0.01804 0.306786,-0.198401 0.21779,-0.273741 -0.392547,-0.332315 -0.872481,-0.58546 -1.37292,-0.704146 -0.570086,-0.135204 -1.171521,-0.02548 -1.757282,-0.03822 -0.241554,0.228147 -0.764087,0.354524 -0.724663,0.684441 0.109856,0.919345 1.73407,1.335524 2.364053,1.173396 0.272302,-0.07008 0.586278,-0.444123 0.470289,-0.700259 -0.215949,-0.476872 -0.754626,-0.756986 -1.229731,-0.976793 -0.489959,-0.22668 -1.057599,-0.217392 -1.586399,-0.326088 -0.161612,0.12498 -0.609988,0.213459 -0.484837,0.374938 0.570268,0.735802 2.153042,0.697716 2.828795,0.350101 1.260639,-0.648488 -0.134117,-1.581992 -0.616771,-1.826236 -0.441453,-0.223394 -0.967632,-0.2069505 -1.451448,-0.3104258 -0.119571,0.021461 -0.473532,0.024704 -0.358713,0.064384 1.126429,0.3892873 2.130673,0.3981313 3.300534,0.040957 0.256743,-0.078387 0.735143,-0.282227 0.613603,-0.5215797 -0.423577,-0.8341657 -2.218674,-0.804479 -2.841138,-0.8694756 -0.500811,0.090909 -2.064715,0.3301445 1.172407,0.3568144 0.694031,0.00572 1.396107,-0.078834 2.065665,-0.2615991 0.291034,-0.079442 0.840363,-0.2191539 0.749766,-0.5069109 -0.219585,-0.6974499 -2.018274,-0.6055181 -2.38965,-0.6237847 -0.57488,0.2206809 -0.949148,0.3200017 1.142806,0.2465509 0.599655,-0.021054 1.199978,-0.1111154 1.781145,-0.2603598 0.231069,-0.059339 0.742699,-0.1514463 0.620636,-0.3564204 -0.323404,-0.5430736 -2.021228,-0.4555157 -2.40173,-0.468537 0.0061,0.075504 -0.05679,0.2170762 0.01838,0.2265132 1.295353,0.1626369 2.664417,-0.05344 3.905574,-0.4015558 0.233965,-0.065622 0.805801,-0.1764696 0.638159,-0.3523738 -0.294164,-0.3086627 -0.821807,-0.2509324 -1.246733,-0.2861938 -0.482828,-0.040066 -0.968087,0.041491 -1.45213,0.062236 -0.08774,0.087483 -0.382194,0.2278318 -0.263225,0.262448 1.277509,0.3717165 2.525207,0.060643 3.764274,-0.2664348 0.937028,-0.2473486 1.297462,-0.6106125 -0.313273,-0.4912674 -0.502372,0.037223 -0.981382,0.2279131 -1.472072,0.3418696 -0.09162,0.1384464 -0.433789,0.3673471 -0.27486,0.4153392 1.128514,0.34078 2.973965,-0.2979533 3.935713,-0.560843 0.352493,-0.096353 0.973696,0.029219 1.045731,-0.3290355 0.06315,-0.314068 -0.629705,-0.1814435 -0.948798,-0.1530446 -0.507401,0.045158 -0.988592,0.246308 -1.482889,0.369462 -0.132228,0.1294134 -0.56729,0.316649 -0.396683,0.3882403 1.060397,0.4449712 2.983384,-0.047463 3.91713,-0.2720991 0.504544,-0.1213811 2.09862,-0.6764881 -0.18588,-0.4875226 -0.604358,0.04999 -1.184418,0.2610404 -1.776628,0.3915606 -0.17535,0.122687 -0.721231,0.2802848 -0.526051,0.3680611 1.040474,0.4679214 3.212999,-0.095004 4.075343,-0.2777154 0.398659,-0.084467 0.927158,-0.00489 1.178317,-0.3258029 C 31.146076,5.0593387 30.44653,5.0919451 30.175503,5.1197024 29.66276,5.1722153 29.177918,5.3794632 28.679125,5.5093436 28.504131,5.6315126 27.963836,5.7792522 28.154143,5.8758505 28.965768,6.2878246 31.356266,5.8212995 31.948668,5.737368 32.300556,5.6875125 32.849934,5.8820628 33,5.559897 33.135334,5.2693572 32.353066,5.4824356 32.038586,5.5443293 31.473852,5.655476 30.942658,5.8965454 30.394694,6.0726534 c -0.214767,0.2213769 -0.816856,0.4084803 -0.644301,0.6641307 0.521027,0.7719296 3.592788,0.3018197 3.780802,0.2853731 0.444187,-0.038855 0.934636,0.037199 1.325948,-0.1765459 0.283745,-0.1549895 -0.65148,-0.074727 -0.969781,-0.018002 -0.715514,0.1275125 -1.403733,0.3773794 -2.105599,0.5660691 -0.388372,0.1619132 -1.134339,0.066095 -1.165116,0.4857396 -0.02878,0.3924246 0.707025,0.3869031 1.097639,0.4343018 0.794471,0.096405 1.600626,-9.051e-4 2.400876,-0.00978 0.431716,-0.00479 0.918384,0.1801637 1.294854,-0.031195 0.28101,-0.1577657 -0.633579,-0.2002631 -0.953386,-0.160513 -0.762769,0.094807 -1.491732,0.3714219 -2.237599,0.5571329 -0.434863,0.2624884 -1.223746,0.2859967 -1.30459,0.7874653 -0.06508,0.4036721 0.681875,0.5061705 1.085559,0.5711728 0.790121,0.127228 1.600629,-7.05e-4 2.400876,-0.0098 0.443265,-0.005 0.924963,-0.2138201 1.329482,-0.03251 0.34481,0.1545481 -0.758998,0.036963 -1.126857,0.1233291 -0.804415,0.188862 -1.585402,0.466381 -2.378103,0.699571 -0.388086,0.265205 -1.185175,0.326033 -1.164257,0.795614 0.02108,0.47327 0.769875,0.602485 1.231315,0.709734 0.777321,0.180666 1.592746,0.109828 2.390476,0.13205 0.386702,0.01077 1.337754,0.310493 1.160082,-0.03314 -0.193912,-0.375047 -0.835202,-0.169208 -1.257161,-0.154618 -0.746978,0.02583 -1.483561,0.183356 -2.225341,0.275035 -0.335147,0.16851 -1.068932,0.135819 -1.005439,0.505531 0.163017,0.949222 3.31328,1.246001 3.466119,1.263923 0.328254,0.03849 1.053569,0.285173 0.990732,-0.0393 -0.07384,-0.381316 -0.694192,-0.411807 -1.082052,-0.432261 -0.696467,-0.03673 -1.383572,0.17717 -2.075357,0.265755 -0.335752,0.2197 -1.025334,0.258264 -1.007256,0.659102 0.05212,1.15577 3.025974,0.983362 3.158552,0.981332 0.341149,-0.0052 1.048086,0.150383 1.006113,-0.188214 -0.04785,-0.38599 -0.694779,-0.413857 -1.083214,-0.433758 -0.743469,-0.03809 -1.478399,0.176434 -2.217598,0.26465 -0.378638,0.272062 -1.081893,0.35308 -1.135914,0.816185 -0.140113,1.201137 2.679956,1.251407 2.851571,1.257306 0.29695,0.01021 0.96661,0.09118 0.87087,-0.190097 -0.125326,-0.3682 -0.694794,-0.413583 -1.083214,-0.433758 -0.743617,-0.03862 -1.47894,0.174843 -2.218409,0.262265 -0.422113,0.325026 -1.141081,0.457265 -1.266338,0.97508 -0.360555,1.490548 2.47493,1.263417 2.691749,1.249041 0.353967,-0.02347 1.032152,0.0095 1.006989,-0.344329 -0.02873,-0.40407 -0.668658,-0.536328 -1.072162,-0.572151 -0.790529,-0.07018 -1.57727,0.177946 -2.365905,0.26692 -0.46664,0.324327 -1.184369,0.447168 -1.399919,0.97298 -0.143245,0.349434 0.257049,0.819534 0.60957,0.955004 0.598732,0.230086 1.295774,0.14729 1.92417,0.01869 0.721798,-0.147718 2.292079,-1.089807 0.08831,-1.357991 -0.839479,-0.102159 -1.681478,0.182422 -2.522217,0.273633 -0.600315,0.327887 -1.360413,0.460384 -1.800944,0.983662 -0.182911,0.217268 0.02989,0.715816 0.302149,0.796657 0.408372,0.121256 2.995284,-0.08962 3.364449,-0.771588 0.151119,-0.279167 -0.447506,-0.552918 -0.764605,-0.567731 -0.808749,-0.03778 -1.594839,0.280173 -2.392259,0.420259 -0.599692,0.275692 -1.330793,0.361946 -1.799078,0.827077 -0.17217,0.171011 0.05832,0.622939 0.297401,0.664485 0.647737,0.112557 1.318506,-0.102277 1.953293,-0.273382 0.501947,-0.135298 1.111698,-0.220977 1.42363,-0.636855 0.151487,-0.201969 -0.371877,-0.428232 -0.624344,-0.428781 -0.764122,-0.0017 -1.502063,0.281684 -2.253095,0.422526 -0.553531,0.222788 -1.214694,0.271873 -1.660593,0.668364 -0.153399,0.1364 0.1097,0.493944 0.311566,0.53118 0.317267,0.05852 2.809097,-0.183806 3.23443,-0.47208 0.157382,-0.106667 -0.299539,-0.301818 -0.489451,-0.292847 -0.765779,0.03617 -1.507139,0.281841 -2.260709,0.422762 -0.638129,0.238633 -1.337451,0.353547 -1.914387,0.715899 -0.136906,0.08599 -0.156915,0.457077 0.0023,0.484998 0.426604,0.0748 3.135506,-0.217451 3.626743,-0.498781 0.149379,-0.08555 -0.145005,-0.398775 -0.316912,-0.407751 -0.710348,-0.03709 -1.410265,0.18716 -2.115398,0.28074 -0.589447,0.191999 -1.255513,0.227688 -1.768342,0.575997 -0.170319,0.115678 -0.181873,0.545553 0.01101,0.617566 0.32011,0.119513 2.553699,0.05744 2.950239,-0.323937 0.16825,-0.161815 -0.401916,-0.31887 -0.634305,-0.296794 -0.723226,0.0687 -1.404675,0.371468 -2.107013,0.557201 -0.549773,0.340641 -1.211158,0.546213 -1.64932,1.021923 -0.170723,0.185352 -0.217614,0.651691 0.01183,0.755893 0.446684,0.202862 2.578975,-0.01867 3.046784,-0.352267 0.137929,-0.09836 -0.130755,-0.420778 -0.299841,-0.410347 -0.676289,0.04172 -1.304681,0.366384 -1.957021,0.549575 -0.507078,0.385773 -1.171356,0.62484 -1.521235,1.157319 -0.169937,0.258626 -0.119734,0.781924 0.159885,0.91451 0.847051,0.401644 2.640703,-0.09006 3.307385,-0.675109 0.133355,-0.117025 0.03976,-0.503672 -0.137347,-0.514238 -0.614956,-0.03669 -1.203134,0.265582 -1.804701,0.398373 -0.508546,0.436545 -1.190272,0.729358 -1.525639,1.309633 -0.17762,0.307333 -0.151429,0.882987 0.160302,1.052769 0.806666,0.439347 2.677946,-0.124827 3.307385,-0.675108 0.133703,-0.116888 0.04847,-0.51894 -0.129105,-0.516897 -0.629389,0.0072 -1.206448,0.359465 -1.809672,0.539198 -0.510237,0.487938 -1.225624,0.827145 -1.530713,1.463813 -0.761979,1.590114 1.172918,1.717914 1.986602,1.762162 0.500437,0.02721 1.047536,10e-6 1.482888,-0.248276 0.154125,-0.0879 0.01929,-0.472783 -0.154312,-0.509426 -0.543257,-0.114667 -1.107258,0.08419 -1.660886,0.126287 -0.455515,0.236412 -1.04468,0.309503 -1.366545,0.709237 -0.166173,0.206375 -0.06509,0.654774 0.170288,0.776428 0.748403,0.3868 2.47071,0.249 3.007228,-0.560337 0.197503,-0.297933 0.08732,-0.829865 -0.190007,-1.055387 -0.438077,-0.356241 -1.092076,-0.287486 -1.638113,-0.431229 -0.449799,0.137794 -1.018257,0.07924 -1.349396,0.413382 -0.186507,0.1882 -0.0653,0.655174 0.170288,0.776428 0.837603,0.431104 2.527696,0.178084 3.146923,-0.575618 0.220287,-0.268125 0.217486,-0.811964 -0.04399,-1.040106 -0.426488,-0.37212 -1.094899,-0.287506 -1.642348,-0.43126 -0.494211,0.144485 -1.083428,0.108252 -1.482631,0.433456 -0.195559,0.159308 -0.199116,0.635096 0.02204,0.756385 0.821599,0.450584 2.543874,0.158393 3.146923,-0.575618 0.220287,-0.268125 0.217486,-0.811964 -0.04399,-1.040106 -0.426488,-0.37212 -1.094899,-0.287506 -1.642348,-0.431259 -0.494211,0.144485 -1.083428,0.108252 -1.482631,0.433455 -0.195559,0.159309 -0.199116,0.635096 0.02204,0.756385 0.824536,0.452195 2.540905,0.156765 3.146923,-0.575618 0.220396,-0.266352 0.224094,-0.809371 -0.03654,-1.036497 -0.382667,-0.333468 -0.995678,-0.197897 -1.493517,-0.296845 -0.452861,0.187035 -1.031764,0.196062 -1.358581,0.561104 -0.176513,0.197158 -0.08538,0.678683 0.160073,0.777582 0.55751,0.224631 1.215379,0.139193 1.803139,0.01343 0.586309,-0.125448 1.177102,-0.362437 1.635316,-0.749136 0.452974,-0.382276 -0.165154,-2.737742 -1.542727,-0.884242 -0.540289,0.162891 -1.110842,0.247179 -1.620869,0.488671 -0.151687,0.07182 -0.449655,0.376438 -0.286146,0.414279 0.498152,0.115286 1.036639,0.01225 1.528712,-0.126715 0.580412,-0.163911 1.182802,-0.372501 1.638399,-0.767691 0.225255,-0.195389 0.449114,-0.649069 0.240101,-0.861742 -0.366592,-0.373011 -1.006051,-0.2863 -1.509077,-0.429451 -0.537382,0.11204 -1.117132,0.09885 -1.612145,0.336118 -0.18647,0.08938 -0.435375,0.449338 -0.262136,0.562242 0.383727,0.250083 0.912578,0.227229 1.365126,0.1566 0.529609,-0.08266 1.098994,-0.236754 1.490981,-0.602354 0.46992,-0.438287 -0.173184,-2.514334 -1.417843,-1.30614 -0.485807,0.05443 -1.000519,-0.01053 -1.457421,0.163282 -0.146737,0.05582 -0.300442,0.411599 -0.147554,0.44728 0.778238,0.181624 2.497277,-0.285956 3.024465,-0.875851 1.083089,-1.211916 -1.082998,-1.461165 -1.430464,-1.590136 -0.4816,0.0062 -0.97276,-0.07698 -1.4448,0.01871 -0.110753,0.02245 -0.261325,0.29033 -0.149201,0.304422 0.763763,0.096 2.416937,-0.222873 3.021171,-0.732993 0.438621,-0.370303 -0.205366,-2.282024 -1.270877,-1.162105 -0.440482,0.04525 -0.939292,-0.08794 -1.321447,0.135736 -0.178108,0.104245 -0.14427,0.513014 0.03327,0.618223 0.683666,0.405134 2.208743,0.434449 2.846414,-0.163283 0.215933,-0.202408 0.280068,-0.661371 0.08486,-0.883834 -0.322471,-0.367493 -0.902939,-0.37531 -1.354409,-0.562965 -0.396336,0.03711 -0.869134,-0.125616 -1.189007,0.111324 -0.178197,0.131996 -0.03487,0.559658 0.170621,0.643026 1.178875,0.478271 2.622181,0.111176 3.584394,-0.638483 0.288071,-0.224437 0.553799,-0.620147 0.490208,-0.979748 -0.0496,-0.280481 -0.492834,-0.285714 -0.739252,-0.428571 -0.261686,0.09628 -0.624003,0.06122 -0.785059,0.288842 -0.520708,0.735913 0.548443,1.091758 0.94754,1.052192 0.415902,-0.04123 1.365532,-0.53982 1.138588,-1.201806 -0.07872,-0.229612 -0.397312,-0.278954 -0.595967,-0.418431 -0.05033,0.0072 -1.702307,0.03388 -0.313216,0.753165 0.848093,0.43915 2.07791,0.414133 2.851911,-0.199233 0.239406,-0.18972 0.394387,-0.548678 0.342986,-0.849787 -0.04006,-0.234706 -0.375384,-0.293012 -0.563076,-0.439518 -0.223703,0.144054 -0.583312,0.180992 -0.671109,0.432162 -0.306474,0.876762 0.711599,1.41315 1.384459,1.354469 0.768254,-0.067 1.656419,-0.826893 1.681,-1.652663 0.0068,-0.228684 -0.272296,-0.367729 -0.408445,-0.551593 -0.217651,0.09858 -0.548565,0.08083 -0.652953,0.295754 -0.390721,0.804467 0.44888,1.408248 1.115591,1.469284 0.554935,0.0508 1.739629,-0.376605 1.671866,-1.204555 -0.02183,-0.266761 -0.386867,-0.36998 -0.580301,-0.55497 -0.306767,0.110212 -0.67739,0.113272 -0.920302,0.330635 -0.832367,0.744816 0.206846,1.097042 0.813319,1.009717 0.651833,-0.09386 1.908188,-0.71015 1.830141,-1.642525 -0.02252,-0.269068 -0.397121,-0.365944 -0.595681,-0.548916 -0.300444,0.05329 -0.655061,-0.02028 -0.901331,0.159886 -0.160291,0.117261 -0.26085,0.448452 -0.116065,0.584395 0.225679,0.211899 0.61223,0.233971 0.913967,0.164784 0.575277,-0.131909 1.666734,-0.764391 1.288904,-1.636676 -0.139606,-0.322307 -0.593663,-0.375566 -0.890494,-0.56335 -0.352076,0.111453 -0.749347,0.128926 -1.056229,0.334359 -0.17193,0.115092 -0.428219,0.417885 -0.274704,0.556591 0.228698,0.206634 0.634828,0.136433 0.92417,0.03022 0.706555,-0.25937 1.644366,-0.984695 1.286747,-1.937034 -0.132578,-0.353056 -0.595899,-0.462393 -0.893849,-0.693589 -0.347727,0.06071 -0.75604,-0.02317 -1.043181,0.18214 -0.489574,0.350044 -0.207685,1.303083 0.50017,1.166942 0.998639,-0.192066 1.324349,-1.432306 1.134812,-2.240506 -0.08327,-0.355085 -0.476453,-0.552333 -0.714679,-0.8285 -0.307148,0.109118 -0.694022,0.09384 -0.921443,0.327353 -0.328946,0.337752 -0.476376,1.435453 0.50131,1.170225 0.872125,-0.236592 1.364783,-1.246478 1.142725,-2.088919 -0.08508,-0.322795 -0.477751,-0.466368 -0.716626,-0.699551 -0.358248,0.162728 -0.799395,0.207106 -1.074743,0.488185 -0.245564,0.250677 -0.461548,0.647305 -0.369246,0.985862 0.06961,0.255331 0.476443,0.410594 0.725778,0.321873 0.720116,-0.256242 1.449897,-1.443628 1.168054,-2.226585 -0.118181,-0.328304 -0.58561,-0.379557 -0.878415,-0.569335 -0.356375,0.159556 -0.778228,0.218208 -1.069126,0.47867 -0.329774,0.295271 -0.502897,1.312159 0.493773,0.888678 0.809374,-0.3439 1.412344,-1.332411 1.025196,-2.2265844 -0.138637,-0.3202032 -0.585609,-0.3795569 -0.878414,-0.5693353 -0.358171,0.1662376 -0.765226,0.2532275 -1.074513,0.4987128 -0.207642,0.1648076 -0.48116,0.4248999 -0.411357,0.6806419 0.05407,0.198084 0.444849,0.176372 0.613179,0.05879 0.46747,-0.3265354 1.311719,-1.5185103 0.922299,-2.2269121 -0.151997,-0.2765006 -0.597715,-0.2023864 -0.896572,-0.3035796 -0.361977,0.2186944 -0.7526,0.395805 -1.085932,0.6560831 -0.180932,0.1412789 -0.534557,0.3251253 -0.436486,0.5326785 0.09265,0.196068 0.466183,0.030425 0.643721,-0.094097 C 32.270904,8.6162595 33.31782,7.5289684 33.116488,6.988989 33.041448,6.7877309 32.700735,6.8808556 32.492859,6.8267889 32.176184,7.0026165 31.84063,7.1480785 31.542834,7.3542716 31.339429,7.4951077 31.133191,7.6519471 31,7.8604376 c -0.03391,0.053084 0.132463,0.1117205 0.176734,0.066909 0.192921,-0.1952775 0.936509,-1.2645051 0.796897,-1.6526433 -0.07178,-0.199565 -0.408746,-0.1133248 -0.613119,-0.1699872 -0.32194,0.2274077 -0.65881,0.4350279 -0.965818,0.6822231 -0.243108,0.1957456 -0.472052,0.4108873 -0.680408,0.6432796 -0.02065,0.02303 0.0091,0.1174748 0.02308,0.089878 0.213983,-0.4227264 0.673461,-1.4527416 0.647675,-1.960941 -0.0058,-0.114957 -0.192073,-0.1269034 -0.288109,-0.1903552 -0.280525,0.3270672 -0.558848,0.6560349 -0.841574,0.9812015 -0.272859,0.3138198 -0.522272,0.6507468 -0.825141,0.9357125 -0.04247,0.039956 0.0028,-0.1173755 0.0158,-0.1742104 C 28.532576,6.7338166 28.63045,6.358779 28.728568,5.9839281 28.815123,5.6532531 29.019685,5.336306 29,4.9950579 28.993547,4.8831973 28.778908,4.9585052 28.668362,4.9402289 28.383624,5.2736062 28.115035,5.6214831 27.814147,5.940361 27.525039,6.2467554 27.267163,6.6060089 26.900632,6.8136536 26.810619,6.864647 26.730878,6.6587843 26.728568,6.5553567 c -0.0083,-0.3723178 0.112704,-0.7369372 0.141542,-1.1082296 0.02289,-0.294716 0.193193,-0.652068 0.0134,-0.8867095 -0.129254,-0.1686872 -0.421794,0.052326 -0.632691,0.078488 -0.234158,0.3755706 -0.455937,0.7591489 -0.702475,1.1267119 -1.022375,1.5242597 -0.68377,1.272716 -0.678024,0.8058108 0.0021,-0.168573 0.05747,-1.7662228 -0.123036,-2.0108548 -0.09788,-0.132648 -0.326555,0.045435 -0.489832,0.068153 -0.186732,0.3738367 -0.363458,0.7528413 -0.560196,1.1215101 -0.87402,1.6378282 -0.497765,0.921449 -0.398576,-0.3031098 0.02386,-0.2946283 0.172897,-0.6335554 0.02003,-0.8865533 -0.08804,-0.1457118 -0.335548,0.05779 -0.503322,0.086685 -0.01849,0.024731 -1.603292,2.1557393 -1.672536,2.2065894 -0.119468,0.087733 -0.381583,-0.013853 -0.415604,-0.1581181 -0.258004,-1.0940518 0.335973,-0.8289043 0.477844,-1.7141066 0.01316,-0.082132 -0.156967,0.055109 -0.235451,0.082664 -0.19165,0.336122 -0.349713,0.6937625 -0.574952,1.0083659 -0.228713,0.319456 -0.450918,0.6688831 -0.779776,0.8838573 -0.08737,0.057116 -0.17028,-0.1564413 -0.173379,-0.2607807 -0.0098,-0.3301504 0.05383,-0.6616548 0.136479,-0.9814443 0.0457,-0.1768437 0.415488,-0.5534423 0.243964,-0.4906564 -0.220221,0.080611 -0.285536,0.3720892 -0.428304,0.5581337 -0.235996,0.3813124 -0.43287,0.7898134 -0.707987,1.1439372 -0.545856,0.7026113 -0.760193,0.9632252 -0.673863,0.3381759 0.0367,-0.2656912 0.09025,-0.5288621 0.143302,-0.7917766 0.02656,-0.131612 0.21723,-0.4478084 0.09542,-0.3913273 -0.207476,0.096206 -0.280366,0.3613911 -0.420549,0.5420867 -0.178031,0.4024375 -0.721873,1.9866873 -1.354649,2.1875 C 16.262488,8.8779128 16.116427,8.5216556 16.017028,8.3216654 15.857044,7.999777 15.72445,7.6451025 15.71758,7.2857143 15.715058,7.1537414 15.921546,6.8882292 15.991763,7 c 0.126661,0.2016161 -0.0033,0.4761905 -0.0049,0.7142857 7.75e-4,0.3919526 0.08503,0.7927296 0.0023,1.1758577 -0.212465,0.9842297 -0.465261,0.6556406 -0.686216,0.1517373 -0.12685,-0.2892915 -0.292274,-0.5832288 -0.299634,-0.8990236 -0.0032,-0.1378267 0.175852,-0.4114594 0.271408,-0.3120835 0.17418,0.181143 0.09379,0.49377 0.14069,0.740655 7.74e-4,0.3919525 0.08994,0.7938217 0.0023,1.1758577 -0.05285,0.2304397 -0.175967,0.5250737 -0.405444,0.5819557 -0.151563,0.03757 -0.121194,-0.291272 -0.144119,-0.4457299 -0.04206,-0.2833459 -3.56e-4,-2.0620993 -0.02584,0.2593449 0.0013,0.204448 0.175797,1.587349 -0.252512,1.919383 -0.239613,0.185754 -0.171853,-1.412435 -0.02991,-0.919383 0.237133,0.823688 -0.396398,1.766829 0,2.571429 0,0.09286 -0.262651,0.09286 -0.262651,0 z"
       inkscape:connector-curvature="0" />
    <path
       style="fill:#000000;fill-opacity:1;fill-rule:nonzero;stroke:none"
       id="path2991"
       d="m 23.868971,38.878981 c -0.04724,-0.334427 -0.06784,-0.673715 -0.141718,-1.003282 -0.0203,-0.09053 -0.132358,-0.334669 -0.137448,-0.24203 -0.0892,1.623296 0.522396,-0.445312 -0.03134,1.670601 -0.02388,0.09126 -0.115882,0.298455 -0.173379,0.223669 -0.204478,-0.265963 -0.248836,-0.623115 -0.373254,-0.934672 -0.04724,-0.334428 -0.09448,-0.668855 -0.141718,-1.003283 -0.03745,-0.02068 -0.102565,-0.103691 -0.112335,-0.06204 -0.319023,1.359891 0.424122,0.35178 -0.643179,1.957931 -0.156576,0.235627 -0.311217,0.570833 -0.591599,0.608556 -0.199645,0.02686 -0.245244,-0.319646 -0.367867,-0.479469 -0.733031,0.849922 0.46298,-1.575202 0.639773,-1.168009 0.151881,0.349817 0.145944,0.774126 0.04927,1.143036 -0.138462,0.528387 -0.453704,0.996169 -0.732874,1.465667 -0.160289,0.269567 -0.267556,0.708081 -0.579415,0.741287 -0.230888,0.02459 -0.159722,-0.436054 -0.239583,-0.654081 0.198397,-0.354762 0.32908,-0.757038 0.595193,-1.064287 0.155225,-0.179221 0.451872,-0.506364 0.623339,-0.342613 0.583003,0.55677 -0.109241,2.192252 -0.24762,2.585865 -0.399603,1.13665 -0.276055,0.497287 -0.234281,0.0308 0.295949,-0.246066 0.556015,-0.543206 0.887847,-0.738199 0.297775,-0.174981 1.406057,-0.765372 1.21522,0.352575 -0.06347,0.371797 -0.378168,0.653794 -0.59445,0.962797 -0.08216,0.117388 -0.322601,0.451758 -0.296974,0.310782 0.05083,-0.279613 0.252854,-0.50905 0.379282,-0.763575 0.387151,-0.287942 0.742639,-0.624259 1.161453,-0.863824 0.423388,-0.242182 1.300981,-0.710085 1.207832,0.35382 -0.02704,0.3088 -0.253899,0.57281 -0.446311,0.815844 -0.05528,0.06983 -0.261957,0.161583 -0.25712,0.07265 0.01995,-0.36679 0.20712,-0.704865 0.310681,-1.057298 0.294634,-0.296443 0.555608,-0.630657 0.883902,-0.889328 0.499965,-0.393934 0.830785,-0.169059 0.355175,0.580295 -0.173543,0.273428 -0.438861,0.534714 -0.752819,0.614152 -0.209539,0.05302 -0.535431,-0.06525 -0.587173,-0.275108 -0.09367,-0.379893 0.157223,-0.766582 0.235834,-1.149873 0.245133,-0.346282 0.436903,-0.737347 0.735398,-1.038847 0.123946,-0.125193 0.429556,-0.364207 0.48976,-0.198644 0.223057,0.613415 -0.850227,1.284795 -1.169533,1.382422 -0.219186,0.06702 -0.596418,0.0947 -0.677082,-0.119835 -0.138871,-0.369347 0.12859,-0.778636 0.192885,-1.167954 0.245133,-0.346282 0.436904,-0.737346 0.735399,-1.038846 0.123946,-0.125193 0.44503,-0.369041 0.48976,-0.198644 0.188918,0.71969 -0.662683,1.640897 -1.151056,1.936001 -0.189462,0.114484 -0.539245,0.228974 -0.662559,0.04514 -0.188532,-0.281064 0.0079,-0.676833 0.01183,-1.015249 0.197825,-0.302653 0.336081,-0.654027 0.593477,-0.907958 0.095,-0.09372 0.403693,-0.200047 0.394695,-0.06691 -0.02619,0.387472 -0.226884,0.760603 -0.462449,1.069359 -0.273469,0.358437 -0.630511,0.664778 -1.025894,0.881423 -0.191677,0.105027 -0.545874,0.228986 -0.654514,0.03933 -0.151546,-0.264553 0.107541,-0.60021 0.161311,-0.900315 0.248637,-0.252434 0.434731,-0.58786 0.74591,-0.757303 0.133064,-0.07245 0.467044,-0.03805 0.440733,0.111155 -0.161173,0.914008 -1.186127,1.725856 -1.836842,2.218813 -0.178196,0.134994 -0.427233,0.462146 -0.593377,0.312568 -0.188359,-0.169578 0.06929,-0.502138 0.103936,-0.753207 -0.386103,-0.805883 1.202827,-0.742847 1.218906,-0.322842 0.02644,0.69073 -0.748277,1.955221 -1.132614,2.450912 -0.07905,0.101955 -0.317054,0.328067 -0.331437,0.19986 -0.035,-0.311939 0.168046,-0.604882 0.252069,-0.907323 0.293424,-0.293239 0.508278,-0.696124 0.880273,-0.879717 1.12364,-0.554556 0.700397,1.189033 0.648278,1.392917 -0.109047,0.42658 -0.342258,0.817014 -0.585407,1.184084 -0.07327,0.110604 -0.325555,0.342116 -0.338071,0.210039 -0.03778,-0.398675 0.164371,-0.783875 0.246557,-1.175812 0.293328,-0.343918 0.509798,-0.772363 0.879984,-1.031754 1.265971,-0.887074 0.67929,1.756387 0.655395,2.101641 -0.0069,0.100035 0.04488,-0.19824 0.09358,-0.285893 0.206439,-0.371558 0.445708,-0.723903 0.668562,-1.085854 0.337877,-0.385973 0.632994,-0.814043 1.013632,-1.15792 0.730138,-0.659626 0.551977,0.263666 0.361592,0.70373 -0.126214,0.291734 -0.327471,0.571706 -0.592516,0.747177 -0.102239,0.06769 -0.350897,-0.0036 -0.345541,-0.126142 0.01966,-0.449687 0.271572,-0.858295 0.407357,-1.287443 0.192472,-0.384979 0.387586,-0.768648 0.577415,-1.154937 0.04699,-0.09562 0.148742,-0.396026 0.132973,-0.290656 -0.09798,0.654692 -0.237072,1.026381 -0.935724,1.308413 -0.138313,0.05583 -0.423766,0.02731 -0.430607,-0.121693 -0.01885,-0.410556 0.247358,-0.783875 0.371037,-1.175812 0.1929,-0.337652 0.3858,-0.675304 0.5787,-1.012956 -0.0096,-0.02619 -0.01634,-0.103558 -0.02871,-0.07857 -0.127381,0.257324 -0.163626,0.560755 -0.326903,0.796938 -0.194246,0.280982 -0.422525,0.565358 -0.724823,0.724412 -0.134084,0.07055 -0.415062,0.03816 -0.440733,-0.111155 -0.06673,-0.38814 0.148084,-0.773622 0.222126,-1.160432 1.045709,-2.716493 0.109298,-0.06198 0.09195,-0.03425 -0.183115,0.292725 -0.425677,0.572209 -0.730488,0.734411 -0.133752,0.07118 -0.39834,0.03431 -0.440733,-0.111155 -0.106838,-0.366584 0.0116,-0.766535 0.07521,-1.143036 0.05874,-0.347693 0.193183,-0.678264 0.289775,-1.017396 -0.0057,0.05905 0.01212,0.12549 -0.01703,0.177161 -0.278251,0.493246 -1.05078,1.617906 -1.474495,1.941876 -0.139909,0.106974 -0.43418,0.205421 -0.525505,0.05483 -0.308122,-0.50808 -0.06141,-1.63144 0.01297,-2.15647 -0.072,0.69415 -0.491174,1.538718 -0.900464,2.082843 -0.07866,0.104574 -0.269917,0.316007 -0.335977,0.20305 -0.145838,-0.249369 -0.09435,-0.579487 -0.05123,-0.865135 0.03949,-0.261635 0.195438,-0.491785 0.293157,-0.737678 0.13058,0.09108 0.367535,0.11588 0.391741,0.273235 0.118562,0.770737 -0.352314,2.134401 -0.575551,2.812634 -0.08134,0.247135 -0.0836,0.559233 -0.28167,0.727939 -0.104449,0.08897 -0.140921,-0.265025 -0.106026,-0.397716 0.08124,-0.308943 0.290107,-0.569232 0.435161,-0.853848 0.09656,-0.148525 0.123743,-0.507602 0.289683,-0.445574 0.216702,0.081 0.256078,0.416105 0.25019,0.647377 -0.0055,0.217716 -0.544678,1.604747 -0.289009,2 0.08312,0.128506 0.311398,-0.05094 0.438455,-0.136268 0.284705,-0.191187 0.51595,-0.45192 0.773925,-0.67788 -0.56976,-0.339364 1.010958,-1.004912 1.145459,-0.596047 0.595594,1.810534 -0.7916,0.204476 0.06765,1.963068 0.05028,0.102905 0.270258,0.119938 0.34221,0.03083 0.173743,-0.215175 0.178101,-0.523669 0.267152,-0.785504 0.04362,-0.31987 0.08724,-0.63974 0.130858,-0.95961 -0.03744,-0.0083 -0.111075,-0.06327 -0.112335,-0.02493 -0.0049,0.150317 0.208292,1.696309 0.229258,1.73922 0.05028,0.102905 0.277638,0.125422 0.34221,0.03083 0.180074,-0.263797 0.176845,-0.613832 0.265268,-0.920748 0.09396,-0.46732 0.220658,-0.929236 0.28188,-1.401961 0.02952,-0.22798 -0.115774,-0.484939 -0.01101,-0.689564 0.07408,-0.144703 0.124842,0.309554 0.122347,0.4721 -0.0043,0.282468 -0.10826,0.555023 -0.142412,0.835453 -0.01064,0.08736 0.02528,0.350273 0.0085,0.263876 -0.05633,-0.290664 -0.08516,-0.585987 -0.127734,-0.878981 0.04891,-0.426002 0.146961,-0.849205 0.146729,-1.278005 -9.8e-5,-0.181569 0.0022,-0.62675 -0.147702,-0.524299 -0.212369,0.145142 -0.103155,0.505094 -0.182307,0.749842 -0.122726,0.379483 -0.275859,0.748523 -0.422251,1.119519 -0.04076,0.103284 -0.09825,0.406039 -0.138959,0.302736 -0.115849,-0.293977 -0.0751,-0.627481 -0.112653,-0.941222 0.04844,-0.37903 0.09687,-0.75806 0.145311,-1.13709 -0.03788,-0.0091 -0.102326,-0.06471 -0.11365,-0.02742 -0.107363,0.353564 -0.137279,0.726155 -0.208621,1.088708 -0.09243,0.469716 -0.246823,0.930696 -0.282687,1.408075 -0.0097,0.129712 0.114365,0.48547 0.149832,0.360321 0.09024,-0.318412 0.01953,-0.661615 0.0293,-0.992423 0.04718,-0.421297 0.09435,-0.842594 0.141529,-1.263892 -0.03836,-0.0098 -0.109225,-0.06851 -0.115068,-0.02936 -0.05981,0.400765 -0.03179,0.809945 -0.06172,1.214041 -0.03844,0.519116 -0.104473,1.035936 -0.143337,1.55502 -0.0033,0.0441 0.01137,0.08771 0.01706,0.131571 -0.0892,-0.476191 -0.178395,-0.952381 -0.267593,-1.428572 0.0011,-0.571428 0.04475,-1.144361 0.0033,-1.714285 -0.0064,-0.08843 -0.130603,-0.31108 -0.144249,-0.223474 -0.828817,5.320786 1.005817,-3.24289 -0.325803,3.100807 -0.02439,0.116209 -0.117783,0.444498 -0.139522,0.327764 -0.100592,-0.540164 -0.07052,-1.096637 -0.105773,-1.644955 0.04866,-0.618389 0.110836,-1.235862 0.145986,-1.855166 0.0079,-0.139643 -0.0335,-0.55814 -0.01689,-0.419262 0.191765,1.603342 0.137902,1.131151 -0.02365,2.868429 -0.008,0.08779 -0.256279,0.06521 -0.248299,-0.02257 l 0,0 C 22.69669,40.646389 22.630471,40.081894 23.137915,39 c 0.06203,-0.132245 -0.01126,0.29192 -0.01689,0.437881 -0.04658,0.619706 -0.09315,1.239413 -0.139729,1.85912 -0.130495,0.4993 -0.292434,0.991425 -0.391487,1.497902 -0.01818,0.09296 0.125945,-0.151136 0.146193,-0.243665 0.250859,-1.146386 0.189341,-2.145517 0.817054,-3.184907 0.06473,-0.107176 0.132698,0.223058 0.141465,0.347955 0.04001,0.570027 0.0022,1.142857 0.0033,1.714285 -0.0892,0.476191 -0.174142,0.953198 -0.267593,1.428572 -0.01,0.05072 0.01235,-0.102664 0.01706,-0.154144 0.04843,-0.52919 0.0275,-1.068999 0.142378,-1.587837 0.104477,-0.471883 0.255651,-0.946238 0.509711,-1.357387 0.05396,-0.08732 0.16891,0.153716 0.170646,0.256354 0.0074,0.438424 -0.09612,0.871691 -0.144185,1.307536 -0.180709,0.335859 -0.237502,0.778098 -0.542127,1.007577 -0.137133,0.103305 -0.149328,-0.325659 -0.135883,-0.496821 0.03857,-0.491006 0.124298,-0.984813 0.288741,-1.449068 0.151516,-0.427758 0.349855,-0.855346 0.648522,-1.197007 0.06809,-0.07789 0.169737,0.15487 0.172065,0.258297 0.0087,0.385627 -0.0936,0.765749 -0.140403,1.148624 -0.132789,0.257688 -0.268961,0.513661 -0.398367,0.773064 -0.04556,0.09132 0.108417,-0.174115 0.146755,-0.268692 0.105556,-0.2604 0.48135,-1.798409 1.109727,-1.844925 0.21068,-0.0156 0.13812,0.407302 0.138012,0.618557 -2.2e-4,0.433624 -0.09266,0.862283 -0.138985,1.293424 C 25.13607,41.44313 25.049552,41.753515 24.860438,42 c -0.06243,0.08137 -0.0045,-0.205825 0.0085,-0.307552 0.03768,-0.294412 0.02462,-0.606781 0.143302,-0.878833 0.07478,-0.171414 0.268465,-0.509492 0.408062,-0.385044 0.183897,0.163942 0.02242,0.494924 -0.01101,0.739008 -0.06712,0.489994 -0.193033,0.970121 -0.289549,1.455182 -0.197292,0.35975 -0.262819,0.834166 -0.591874,1.079252 -0.153599,0.114402 -0.428095,-0.08418 -0.514934,-0.254886 -0.158743,-0.312047 -0.184364,-0.692625 -0.143996,-1.040394 0.231424,-1.993728 0.91112,-0.30073 0.391777,0.366498 -0.196663,0.309594 -0.276858,0.737802 -0.58999,0.928782 -0.16351,0.09972 -0.428094,-0.08418 -0.514934,-0.254886 -0.158743,-0.312047 -0.157511,-0.690551 -0.143996,-1.040394 0.0095,-0.247037 0.189136,-0.46463 0.211646,-0.710824 0.03079,-0.336767 -1.792749,-0.74358 -0.854542,0.54681 -0.313453,0.25023 -0.564637,0.610335 -0.940361,0.750692 -0.951748,0.355539 -0.760231,-0.575859 -0.696841,-1.024764 0.05336,-0.377912 0.156326,-0.748716 0.274859,-1.111504 0.05746,-0.175872 0.315316,-0.3223 0.25019,-0.495481 -0.05852,-0.155616 -0.18783,0.27438 -0.281745,0.411569 -0.140661,0.286813 -0.224444,0.609389 -0.421982,0.860438 -0.08833,0.112258 -0.364598,0.313953 -0.39174,0.173713 -0.04802,-0.248124 0.208906,-0.461186 0.289758,-0.700632 0.660067,-1.954813 0.262361,-0.78847 0.567307,-2.615938 0.01736,-0.104056 0.07068,-0.198796 0.106026,-0.298194 -0.09276,0.230298 -0.168941,0.467986 -0.278271,0.690894 -0.09637,0.196473 -0.291744,0.349322 -0.336944,0.563436 -0.01718,0.08139 0.18565,-0.01604 0.235452,-0.08266 0.226893,-0.303536 0.385218,-0.652986 0.564157,-0.987045 0.192026,-0.358492 0.279201,-0.784997 0.548346,-1.089877 0.06973,-0.07899 0.181831,0.10651 0.272747,0.159765 -0.04714,0.327148 -0.09305,0.654476 -0.141422,0.981444 -0.04254,0.287547 -0.193364,0.578106 -0.131325,0.862085 0.02391,0.109465 0.243858,0.124465 0.331638,0.05483 0.301582,-0.239244 1.448595,-1.771967 1.668362,-2.058123 0.08305,-0.0679 0.179124,0.118107 0.268686,0.177161 -0.09388,0.327534 -0.193593,0.653456 -0.281653,0.982604 -0.07602,0.284153 -0.187816,0.563694 -0.210507,0.856964 -0.0056,0.07247 0.06911,0.21317 0.130695,0.174559 0.482242,-0.30234 2.311971,-2.78523 1.075751,-0.442699 -0.116435,0.279856 -0.285431,0.543263 -0.349303,0.839568 -0.01532,0.07106 0.06932,0.21351 0.130695,0.17456 0.280181,-0.177824 0.454501,-0.485076 0.703749,-0.70416 0.258341,-0.227078 0.513206,-0.46839 0.815954,-0.631633 0.06136,-0.03308 0.0023,0.144707 -0.02871,0.207144 -0.168515,0.339437 -0.376104,0.65803 -0.564157,0.987045 -0.162035,0.274729 -0.380899,0.523084 -0.486106,0.824187 -0.02377,0.06803 0.07545,0.194333 0.140822,0.164022 0.516073,-0.23928 0.781101,-0.811963 1.34999,-0.977301 0.10231,-0.02973 -0.104427,0.185814 -0.152741,0.280772 -0.191104,0.375603 -0.376962,0.753852 -0.565443,1.130778 -0.149929,0.332757 -0.302758,0.664222 -0.449786,0.998271 -0.225727,0.512854 0.230362,-0.206904 0.490515,-0.521822 0.148742,-0.180053 0.41388,-0.303807 0.453645,-0.533941 0.02211,-0.127932 -0.281087,0.0082 -0.377767,0.09481 -0.371913,0.333327 -0.657579,0.751862 -0.986368,1.127794 -0.253337,0.399953 -0.420039,0.870373 -0.76001,1.19986 -0.114378,0.110852 -0.426203,0.150499 -0.477844,-1.79e-4 -0.10716,-0.312674 0.09309,-0.65447 0.141421,-0.981444 0.04259,-0.28809 0.233404,-0.590989 0.131326,-0.863733 -0.05579,-0.149057 -0.344059,-0.144378 -0.474495,-0.05318 -0.349159,0.24412 -0.556201,0.645497 -0.834302,0.968246 -0.203528,0.274729 -0.456712,0.518863 -0.610586,0.824187 -0.0368,0.07303 0.187761,-0.0078 0.233358,-0.07567 0.204639,-0.304653 0.881408,-1.613837 0.795882,-2.096413 -0.02813,-0.158714 -0.303587,-0.256726 -0.447297,-0.183729 -0.350646,0.178111 -0.556008,0.55638 -0.834012,0.834569 -0.201691,0.17375 -0.434027,0.31726 -0.605074,0.521248 -0.05459,0.0651 0.187715,-0.01888 0.239991,-0.08585 0.3107,-0.398068 1.005784,-1.575659 1.1531,-2.120516 0.02604,-0.0963 -0.01028,-0.310372 -0.105341,-0.280119 -0.272532,0.08673 -0.450502,0.35247 -0.675752,0.528706 -0.155831,0.129883 -0.575241,0.217767 -0.467494,0.389649 0.107539,0.171548 0.386888,-0.13821 0.549481,-0.25886 0.398596,-0.295773 0.760603,-0.638847 1.120682,-0.980465 0.266424,-0.252765 0.558371,-0.491671 0.756762,-0.800723 0.03927,-0.06117 -0.06866,-0.212443 -0.130696,-0.174559 -0.272364,0.16633 -0.455108,0.447512 -0.682661,0.671269 -0.136706,0.176085 -0.440553,0.307421 -0.410117,0.528256 0.0223,0.161779 0.344803,0.117219 0.488342,0.03933 0.05308,-0.0288 1.511513,-1.275687 1.654515,-1.477789 0.03638,-0.05142 -0.117823,-0.04461 -0.176734,-0.06691 -0.183127,0.268776 -0.366253,0.537552 -0.54938,0.806327 -0.09129,0.233013 -0.340775,0.457883 -0.273886,0.699037 0.04298,0.154955 0.342103,0.127359 0.480297,0.04514 0.01753,-0.01043 1.351098,-1.311906 1.420374,-1.49257 0.04506,-0.117511 -0.277873,-0.0014 -0.367384,0.08707 -0.280944,0.277677 -0.462115,0.640769 -0.693173,0.961154 -0.12618,0.277349 -0.405076,0.528501 -0.378542,0.832046 0.01435,0.164184 0.307613,0.21222 0.465774,0.16588 0.315203,-0.09235 0.545998,-0.365318 0.8221,-0.543221 0.191241,-0.123224 0.440091,-0.180518 0.579796,-0.360072 0.07728,-0.09933 -0.277873,-0.0014 -0.367383,0.08707 -0.280944,0.277677 -0.462116,0.640769 -0.693173,0.961154 -0.111865,0.283375 -0.318185,0.545968 -0.335595,0.850126 -0.0076,0.133403 0.14021,0.328206 0.26997,0.296321 0.27774,-0.06825 0.453198,-0.349078 0.675753,-0.528706 0.152901,-0.123408 0.402611,-0.189667 0.450428,-0.380251 0.03202,-0.127628 -0.276528,0.02336 -0.380968,0.103404 -0.309683,0.237337 -0.553589,0.549972 -0.830383,0.824957 -0.182154,0.218996 -0.381594,0.4247 -0.546463,0.656988 -0.01506,0.02122 0.01217,0.09284 0.0286,0.07265 0.402793,-0.49505 1.043344,-1.643567 -0.381336,-0.830335 -0.408094,0.232947 -0.749508,0.566974 -1.124261,0.850461 -0.254525,0.126428 -0.487388,0.312294 -0.763575,0.379283 -0.122612,0.02974 0.194865,-0.162752 0.274454,-0.260648 0.195622,-0.240618 0.416276,-0.470942 0.548407,-0.751488 0.384492,-0.816372 -0.414438,-0.433157 -0.78478,-0.218854 -0.310684,0.179782 -0.550959,0.460249 -0.826439,0.690373 -0.173607,0.09734 -0.386138,0.438575 -0.520822,0.29203 -0.139274,-0.151539 0.216301,-0.353481 0.286541,-0.546943 0.165375,-0.455487 0.292007,-0.924445 0.417605,-1.392464 0.07772,-0.289595 0.326868,-0.611057 0.191919,-0.878814 -0.08516,-0.168977 -0.391674,0.08931 -0.519519,0.228816 -0.24417,0.266442 -0.365109,0.623808 -0.547664,0.935712 -0.07986,0.162925 -0.394281,0.583597 -0.239583,0.488776 0.492319,-0.301765 1.13097,-1.799158 1.25914,-2.07876 0.127805,-0.278806 0.292039,-0.553282 0.334987,-0.856964 0.04538,-0.320896 -2.092485,1.602377 -0.503085,0.831992 -0.02738,0.125891 -0.204356,0.418475 -0.08215,0.377673 0.242727,-0.08104 0.408972,-0.321605 0.551258,-0.534301 0.09458,-0.141379 0.872662,-1.841635 1.071107,-2.042069 0.29573,-0.298695 0.456348,2.933293 0.317375,1.220386 -0.02918,0.259871 -0.09657,0.518265 -0.08754,0.779614 0.0015,0.04275 0.102483,-0.02042 0.112336,-0.06204 0.07813,-0.330085 0.04129,-0.683566 0.1409,-1.007814 0.190359,-0.619615 0.39574,-1.109129 0.547451,-0.420758 0.07225,0.327822 0.096,0.664478 0.143996,0.996718 0.01544,0.09265 -0.246616,0.136328 -0.262058,0.04368 z"
       inkscape:connector-curvature="0" />
  </g>
</svg>
