<?xml version="1.0" encoding="UTF-8" standalone="no"?>
<!-- Created with Inkscape (http://www.inkscape.org/) -->

<svg
   xmlns:dc="http://purl.org/dc/elements/1.1/"
   xmlns:cc="http://creativecommons.org/ns#"
   xmlns:rdf="http://www.w3.org/1999/02/22-rdf-syntax-ns#"
   xmlns:svg="http://www.w3.org/2000/svg"
   xmlns="http://www.w3.org/2000/svg"
   xmlns:sodipodi="http://sodipodi.sourceforge.net/DTD/sodipodi-0.dtd"
   xmlns:inkscape="http://www.inkscape.org/namespaces/inkscape"
   width="48px"
   height="48px"
   id="svg3100"
   version="1.1"
   inkscape:version="0.48.3.1 r9886"
   sodipodi:docname="not_mapped.svg">
  <defs
     id="defs3102" />
  <sodipodi:namedview
     id="base"
     pagecolor="#ffffff"
     bordercolor="#666666"
     borderopacity="1.0"
     inkscape:pageopacity="0.0"
     inkscape:pageshadow="2"
     inkscape:zoom="7"
     inkscape:cx="24.318599"
     inkscape:cy="24.719599"
     inkscape:current-layer="layer1"
     showgrid="true"
     inkscape:grid-bbox="true"
     inkscape:document-units="px"
     inkscape:window-width="1223"
     inkscape:window-height="936"
     inkscape:window-x="57"
     inkscape:window-y="24"
     inkscape:window-maximized="1" />
  <metadata
     id="metadata3105">
    <rdf:RDF>
      <cc:Work
         rdf:about="">
        <dc:format>image/svg+xml</dc:format>
        <dc:type
           rdf:resource="http://purl.org/dc/dcmitype/StillImage" />
        <dc:title></dc:title>
      </cc:Work>
    </rdf:RDF>
  </metadata>
  <g
     id="layer1"
     inkscape:label="Layer 1"
     inkscape:groupmode="layer">
    <path
       style="fill:#008000"
       id="path3157"
       d="m 10.375022,18.993408 c 0.02143,0.04741 0.03804,0.0973 0.06427,0.142233 0.230348,0.394517 0.525271,0.756798 0.800541,1.119344 0.4905,0.646013 0.333284,0.439262 0.849922,1.113219 1.071961,1.293482 2.102112,2.620311 3.152066,3.93138 0.940955,1.215716 1.907024,2.412187 2.752004,3.697767 0.616366,0.930594 1.062412,1.954731 1.583851,2.937641 0.363543,0.643068 0.629583,1.32529 0.847886,2.028174 0.174411,0.539152 0.281895,1.094722 0.352555,1.655918 0.0694,0.506165 0.08314,1.021043 0.217717,1.515485 0.134022,0.405041 0.323409,0.788785 0.498313,1.177191 0.15172,0.321785 0.298002,0.642855 0.394162,0.985996 0.948804,2.115292 -10.351002,3.386427 -7.147477,3.8824 0.05283,-0.06218 0.11505,-0.117472 0.158485,-0.186543 0.3249,-0.516656 0.522199,-1.232053 0.691229,-1.815402 0.287131,-1.052261 0.51707,-2.118647 0.696693,-3.194216 0.164603,-0.900904 0.270981,-1.812205 0.449964,-2.710627 0.09247,-0.46416 0.22651,-0.998886 0.337539,-1.458674 0.241018,-0.922989 0.465231,-1.851362 0.794085,-2.748351 0.209762,-0.572152 0.270745,-0.677034 0.525576,-1.235507 0.60213,-1.239071 1.396782,-2.361816 2.258094,-3.430968 0.948519,-1.140579 1.973598,-2.212487 3.000197,-3.28202 1.039022,-1.092073 2.083432,-2.178893 3.130291,-3.263451 0.984876,-1.001011 2.008165,-1.965473 3.044662,-2.912924 1.122611,-1.026362 2.275618,-2.018004 3.437211,-2.999708 1.088745,-0.902177 2.178249,-1.802633 3.289861,-2.676589 0.822317,-0.67075 1.69294,-1.2796983 2.523274,-1.9396789 0.07734,-0.066518 0.154687,-0.1330366 0.232031,-0.1995549 0,0 7.562435,-3.0301636 7.562435,-3.0301636 l 0,0 c -0.0958,0.070481 -0.191595,0.140961 -0.287392,0.2114415 -0.888294,0.7323827 -1.867623,1.3378703 -2.769118,2.0543959 -0.7458,0.5769551 -1.493395,1.153374 -2.214933,1.760731 -0.17905,0.150715 -0.35091,0.309905 -0.531465,0.458813 -0.183391,0.151246 -0.373402,0.294283 -0.560103,0.441424 -1.184003,0.950648 -2.340296,1.934651 -3.455164,2.965866 -1.040717,0.940088 -2.03846,1.925456 -3.072125,2.873091 -1.062863,1.080254 -2.102212,2.183156 -3.164884,3.263576 -0.983209,1.063904 -2.007245,2.091415 -2.935796,3.204826 -0.875922,1.008614 -1.687955,2.070375 -2.332704,3.244863 -0.290055,0.592346 -0.581909,1.186204 -0.818473,1.802709 -0.216545,0.564334 -0.26597,0.77145 -0.427438,1.358291 -0.06495,0.236052 -0.127287,0.472815 -0.190931,0.709222 -0.350951,1.336952 -0.576429,2.698351 -0.748327,4.069218 -0.15182,1.065445 -0.266049,2.136736 -0.481162,3.192448 -0.136721,0.521638 -0.268242,1.046293 -0.422589,1.563057 -0.02888,0.09668 -0.07296,0.188871 -0.09574,0.287167 -0.02049,0.0884 -0.02229,0.180116 -0.03343,0.270175 0.0068,0.09685 0.105717,0.244161 0.02043,0.290548 -2.47015,1.343444 -6.722639,6.022272 -7.72254,3.394216 -0.0503,-0.13221 -0.04451,-0.158065 -0.05423,-0.285307 -0.04208,-0.308068 -0.167155,-0.582215 -0.283769,-0.868172 -0.175745,-0.426919 -0.358903,-0.853264 -0.495177,-1.294294 -0.161655,-0.528661 -0.233555,-1.061547 -0.28907,-1.610085 -0.08128,-0.522588 -0.06683,-1.061443 -0.24034,-1.569039 -0.204345,-0.668378 -0.359922,-1.351225 -0.661171,-1.986786 -0.448282,-0.990896 -0.88085,-1.991241 -1.40126,-2.947075 C 10.97765,32.572875 10.741535,32.167133 10.49692,31.80097 9.9090068,30.920924 9.2396644,30.097594 8.6120103,29.246455 7.6125602,27.901702 6.5314119,26.623004 5.4021434,25.38535 4.6930781,24.608032 3.9719147,23.844696 3.1560787,23.177473 c 0,0 7.2189433,-4.184065 7.2189433,-4.184065 z"
       inkscape:connector-curvature="0" />
  </g>
</svg>
