<?xml version="1.0" encoding="UTF-8" standalone="no"?>
<!-- Created with Inkscape (http://www.inkscape.org/) -->

<svg
   xmlns:dc="http://purl.org/dc/elements/1.1/"
   xmlns:cc="http://creativecommons.org/ns#"
   xmlns:rdf="http://www.w3.org/1999/02/22-rdf-syntax-ns#"
   xmlns:svg="http://www.w3.org/2000/svg"
   xmlns="http://www.w3.org/2000/svg"
   xmlns:sodipodi="http://sodipodi.sourceforge.net/DTD/sodipodi-0.dtd"
   xmlns:inkscape="http://www.inkscape.org/namespaces/inkscape"
   width="48px"
   height="48px"
   id="svg3100"
   version="1.1"
   inkscape:version="0.48.3.1 r9886"
   sodipodi:docname="New document 7">
  <defs
     id="defs3102" />
  <sodipodi:namedview
     id="base"
     pagecolor="#ffffff"
     bordercolor="#666666"
     borderopacity="1.0"
     inkscape:pageopacity="0.0"
     inkscape:pageshadow="2"
     inkscape:zoom="7"
     inkscape:cx="24.318599"
     inkscape:cy="24.719599"
     inkscape:current-layer="layer1"
     showgrid="true"
     inkscape:grid-bbox="true"
     inkscape:document-units="px"
     inkscape:window-width="1223"
     inkscape:window-height="936"
     inkscape:window-x="57"
     inkscape:window-y="24"
     inkscape:window-maximized="1" />
  <metadata
     id="metadata3105">
    <rdf:RDF>
      <cc:Work
         rdf:about="">
        <dc:format>image/svg+xml</dc:format>
        <dc:type
           rdf:resource="http://purl.org/dc/dcmitype/StillImage" />
        <dc:title></dc:title>
      </cc:Work>
    </rdf:RDF>
  </metadata>
  <g
     id="layer1"
     inkscape:label="Layer 1"
     inkscape:groupmode="layer">
    <path
       style="fill:#ff0000"
       id="path3013"
       d="m 3.9561628,41.273503 c 0.6996085,-0.875432 1.1449001,-1.945244 1.6099161,-2.977983 0.858361,-1.914368 1.799876,-3.783745 2.788535,-5.621747 1.278588,-2.218245 2.7955241,-4.2762 4.4148941,-6.211127 0.362671,-0.433342 0.739951,-0.851953 1.10993,-1.27793 1.661965,-1.855999 3.593967,-3.382322 5.5146,-4.899806 1.762235,-1.392332 1.405683,-1.108273 3.197432,-2.476206 2.037201,-1.560264 4.061868,-3.152562 6.228686,-4.4978 7.002028,-4.347115 4.634077,-3.121945 8.473923,-5.015404 2.037991,-0.904979 4.117146,-1.71 6.264729,-2.243908 0.741418,-0.162148 0.389047,-0.091761 1.056453,-0.2150039 0,0 -6.004037,4.8878839 -6.004037,4.8878839 l 0,0 c -0.541609,0.06542 -0.25377,0.02543 -0.863006,0.124231 -1.903,0.403278 -3.762285,1.039474 -5.551951,1.848842 -2.902038,1.445521 -1.488486,0.8089 2.519437,-1.855697 0.521394,-0.346636 -1.063201,0.656 -1.585317,1.00135 -1.167998,0.772566 -2.05547,1.430421 -3.180874,2.277831 -0.532832,0.401213 -1.060149,0.81102 -1.590225,1.216529 -2.107606,1.602865 -1.07301,0.797576 -3.123839,2.429806 -1.413011,1.124598 -2.849287,2.235682 -4.169692,3.490034 -0.408001,0.387591 -0.791197,0.805019 -1.186795,1.207529 -0.943519,1.059891 -1.277736,1.397989 -2.148466,2.523587 -1.122746,1.451396 -2.122204,3.010769 -3.040673,4.621521 -0.934688,1.74634 -1.781024,3.540754 -2.512781,5.399367 -0.367008,0.959981 -0.742651,1.915576 -1.104591,2.877873 0,0 -7.1162882,3.386228 -7.1162882,3.386228 z"
       inkscape:connector-curvature="0" />
    <path
       style="fill:#ff0000"
       id="path3015"
       d="m 18.731301,2.9807342 c 0.06333,0.1073527 0.121846,0.2182926 0.190068,0.3220581 0.230281,0.3502656 0.484098,0.6815226 0.723067,1.0248411 0.64643,0.928676 1.28839,1.8607186 1.925152,2.7972796 1.435945,2.144007 2.784355,4.358672 4.004448,6.656083 0.736894,1.387553 1.595107,3.143247 2.291118,4.546354 2.386259,4.622026 4.558133,9.36844 6.863795,14.037057 0.314671,0.61543 0.626208,1.232765 0.944015,1.846286 0.278888,0.538388 0.565795,1.071823 0.846038,1.60938 0.663556,1.272818 1.30366,2.558089 2.061598,3.769207 0.179459,0.286759 0.374032,0.56198 0.561047,0.84297 0.158921,0.207956 0.317842,0.41591 0.476764,0.623865 0,0 -6.241452,3.963157 -6.241452,3.963157 l 0,0 c -0.111922,-0.249337 -0.223844,-0.498673 -0.335767,-0.74801 -0.501737,-1.154449 -1.006941,-2.306226 -1.483079,-3.473616 -0.71307,-1.748298 -0.557999,-1.410194 -1.28345,-3.248307 -0.257033,-0.651258 -0.518752,-1.300319 -0.778129,-1.950478 -1.982202,-4.833404 -4.11043,-9.60191 -6.64257,-14.127902 -0.42125,-0.756396 -0.830388,-1.520929 -1.263751,-2.269187 -1.703041,-2.940526 -3.58849,-5.773343 -5.806145,-8.282839 -1.152675,-1.243531 -2.29162,-2.543428 -3.628327,-3.555888 0,0 6.57556,-4.3823108 6.57556,-4.3823108 z"
       inkscape:connector-curvature="0" />
  </g>
</svg>
