<?xml version="1.0" encoding="UTF-8" standalone="no"?>
<!-- Created with Inkscape (http://www.inkscape.org/) -->

<svg
   xmlns:dc="http://purl.org/dc/elements/1.1/"
   xmlns:cc="http://creativecommons.org/ns#"
   xmlns:rdf="http://www.w3.org/1999/02/22-rdf-syntax-ns#"
   xmlns:svg="http://www.w3.org/2000/svg"
   xmlns="http://www.w3.org/2000/svg"
   version="1.1"
   width="30"
   height="30"
   id="svg2">
  <defs
     id="defs4" />
  <metadata
     id="metadata7">
    <rdf:RDF>
      <cc:Work
         rdf:about="">
        <dc:format>image/svg+xml</dc:format>
        <dc:type
           rdf:resource="http://purl.org/dc/dcmitype/StillImage" />
        <dc:title></dc:title>
      </cc:Work>
    </rdf:RDF>
  </metadata>
  <g
     transform="translate(0,-1022.3622)"
     id="layer1">
    <path
       d="m 7.3867405,15.289654 c 0.084179,-0.08418 0.1741447,-0.162946 0.2525381,-0.252539 0.069291,-0.07919 0.1190123,-0.174325 0.1894036,-0.252538 0.119458,-0.132731 0.2525382,-0.252538 0.3788072,-0.378807 0.3078813,-0.307881 0.3383335,-0.357386 0.6944799,-0.631345 0.1434924,-0.110379 0.2971141,-0.207052 0.4419418,-0.315673 1.0314999,-0.773625 0.092698,-0.128695 1.3889599,-1.010153 1.23545,-0.840106 0.285444,-0.168066 1.38896,-0.947018 0.147899,-0.104399 0.308491,-0.193343 0.441941,-0.315672 0.121163,-0.111066 0.199449,-0.262583 0.315673,-0.378807 0.01488,-0.01488 0.04562,0.01167 0.06313,0 0.04953,-0.03302 0.07979,-0.08909 0.126269,-0.126269 0.199104,-0.159284 0.449208,-0.259806 0.631345,-0.441942 0.05365,-0.05365 0.08418,-0.126269 0.126269,-0.189404 0.08418,-0.1262689 0.177246,-0.2470454 0.252538,-0.378807 0.04669,-0.081715 0.07958,-0.1708231 0.126269,-0.2525382 0.03765,-0.065881 0.08418,-0.126269 0.126269,-0.1894036 0.04209,-0.063135 0.07769,-0.1311123 0.126269,-0.1894036 0.05716,-0.068591 0.133628,-0.1196831 0.189404,-0.1894036 0.0294,-0.036746 0.04209,-0.084179 0.06313,-0.126269 0.02105,-0.04209 0.04566,-0.082577 0.06314,-0.1262691 0.02472,-0.06179 0.03337,-0.1298798 0.06313,-0.1894036 0.01331,-0.02662 0.05592,-0.034261 0.06313,-0.063135 0.01516,-0.060634 -0.01516,-0.2550388 0,-0.3156727 0.01141,-0.045653 0.04566,-0.082577 0.06314,-0.1262691 0.02472,-0.06179 0.03842,-0.1276138 0.06313,-0.1894036 0.03495,-0.087384 0.09651,-0.1632524 0.126269,-0.2525381 0.0067,-0.019965 -0.0094,-0.044312 0,-0.063134 0.01331,-0.02662 0.04663,-0.038371 0.06313,-0.063135 0.05221,-0.078309 0.0698,-0.1772458 0.126269,-0.2525381 0.03571,-0.047619 0.09056,-0.07865 0.126269,-0.1262691 0.05647,-0.075292 0.07406,-0.1742294 0.126269,-0.2525381 0.01651,-0.024763 0.04209,-0.04209 0.06313,-0.063135 0.02105,-0.021045 0.05372,-0.0349 0.06314,-0.063134 0.01523,-0.045687 -0.02081,-0.2317266 0,-0.2525381 0.01488,-0.014881 0.04825,0.014881 0.06313,0 0.01488,-0.014881 -0.0094,-0.044312 0,-0.063135 0.01331,-0.02662 0.04982,-0.036515 0.06313,-0.063134 0.03971,-0.079417 -0.09067,-0.1262691 0.06313,-0.1262691 0.268845,0.2031249 0.416988,0.5074962 0.631375,0.7576146 0.151633,0.1769053 0.268032,0.2203913 0.378807,0.4419418 0.146361,0.2927225 0.09878,0.3594666 0.189404,0.6313453 0.216956,0.6508701 0.01911,-0.021086 0.315672,0.6313454 0.05508,0.1211691 0.08418,0.2525381 0.12627,0.3788072 0.04209,0.126269 0.09125,0.2503978 0.126269,0.3788072 0.02823,0.1035269 0.02646,0.2148252 0.06313,0.3156726 0.420897,1.1574666 0,-0.2104484 0.315673,0.6313456 0.03047,0.08124 0.02789,0.173246 0.06313,0.252538 0.107885,0.242741 0.234186,0.323749 0.315673,0.568211 0.03393,0.101801 0.0292,0.213871 0.06313,0.315672 0.02976,0.08929 0.09651,0.163253 0.126269,0.252539 0.03393,0.101801 0.0292,0.213871 0.06313,0.315672 0.02976,0.08929 0.08805,0.166535 0.126269,0.252538 0.04603,0.103563 0.07559,0.214308 0.126269,0.315673 0.155913,0.311826 0.405704,0.620635 0.631346,0.883884 0.07747,0.09039 0.168358,0.168358 0.252538,0.252538 0.02105,0.02104 0.04209,0.04209 0.06313,0.06313 0.02105,0.02105 0.04983,0.03651 0.06314,0.06314 0.02976,0.05952 0.02889,0.132337 0.06313,0.189403 0.06125,0.102083 0.18111,0.1573 0.252538,0.252538 0.02823,0.03765 0.0349,0.08862 0.06313,0.12627 0.106066,0.141421 0.272741,0.237385 0.378807,0.378807 0.05647,0.07529 0.0698,0.177246 0.126269,0.252538 0.05357,0.07143 0.139877,0.115113 0.189404,0.189403 0.0078,0.01176 0.122223,0.248493 0.126269,0.252539 0.03328,0.03327 0.08862,0.0349 0.126269,0.06313 0.18205,0.136538 0.08186,0.09122 0.189404,0.252538 0.06816,0.102236 0.126269,0.04431 0.126269,0.189404"
       transform="translate(0,1022.3622)"
       id="path3022"
       style="fill:none;stroke:#000000;stroke-width:1px;stroke-linecap:butt;stroke-linejoin:miter;stroke-opacity:1" />
    <path
       d="m 9.1545075,23.560278 c 0.076917,-0.153834 0.2137474,-0.443636 0.3156726,-0.568211 0.1130782,-0.138207 0.2525382,-0.252538 0.3788072,-0.378808 0.1052243,-0.105224 0.2104487,-0.210448 0.3156727,-0.315672 0.126269,-0.126269 0.257686,-0.247592 0.378807,-0.378807 0.131603,-0.14257 0.241612,-0.304747 0.378807,-0.441942 0.179191,-0.179191 0.389021,-0.325886 0.568211,-0.505076 0.200203,-0.200203 0.373808,-0.425507 0.568211,-0.631346 0.163482,-0.173098 0.347547,-0.326543 0.505076,-0.505076 0.158755,-0.179922 0.283935,-0.387631 0.441942,-0.568211 0.274377,-0.313573 0.602332,-0.576736 0.883884,-0.883883 0.07981,-0.08706 0.357895,-0.450547 0.441941,-0.568211 0.0441,-0.06175 0.07769,-0.131112 0.126269,-0.189404 0.05716,-0.06859 0.126269,-0.126269 0.189404,-0.189403 0.105224,-0.105225 0.210448,-0.210449 0.315673,-0.315673 0.06313,-0.06313 0.133627,-0.119683 0.189403,-0.189404 0.0449,-0.05612 0.116137,-0.265012 0.126269,-0.315672 0.0083,-0.04127 -0.01021,-0.08544 0,-0.126269 0.01141,-0.04565 0.04825,-0.08163 0.06314,-0.126269 0.01331,-0.03993 0,-0.08418 0,-0.126269"
       transform="translate(0,1022.3622)"
       id="path3024"
       style="fill:none;stroke:#000000;stroke-width:1px;stroke-linecap:butt;stroke-linejoin:miter;stroke-opacity:1" />
    <path
       d="m 15.026019,15.415923 c 0.107159,0.142878 0.332536,0.448859 0.441942,0.56821 0.140776,0.153574 0.294628,0.294628 0.441942,0.441942 0.252538,0.252538 0.492152,0.518699 0.757614,0.757615 0.366516,0.329864 0.766679,0.620774 1.136422,0.947018 1.272075,1.122419 0.760074,0.82445 2.146574,1.894036 1.693938,1.306752 0.507071,0.191398 1.704632,1.388959 0.168359,0.168359 0.336718,0.336718 0.505077,0.505077 0.126269,0.126269 0.252538,0.252538 0.378807,0.378807 0.04209,0.04209 0.09325,0.07674 0.126269,0.126269 0.01167,0.01751 -0.0094,0.04431 0,0.06313 0.131375,0.262751 -0.0044,-0.06749 0.126269,0.06314 0.01488,0.01488 -0.01167,0.04562 0,0.06313 0.03302,0.04953 0.08418,0.08418 0.126269,0.12627 0.02104,0.02104 0.04982,0.03651 0.06313,0.06313 0.0094,0.01882 0,0.04209 0,0.06314 0,0.02104 0,0.04209 0,0.06313"
       transform="translate(0,1022.3622)"
       id="path3026"
       style="fill:none;stroke:#000000;stroke-width:1px;stroke-linecap:butt;stroke-linejoin:miter;stroke-opacity:1" />
  </g>
</svg>
