<?xml version="1.0" encoding="UTF-8" standalone="no"?>
<!-- Created with Inkscape (http://www.inkscape.org/) -->

<svg
   xmlns:dc="http://purl.org/dc/elements/1.1/"
   xmlns:cc="http://creativecommons.org/ns#"
   xmlns:rdf="http://www.w3.org/1999/02/22-rdf-syntax-ns#"
   xmlns:svg="http://www.w3.org/2000/svg"
   xmlns="http://www.w3.org/2000/svg"
   xmlns:sodipodi="http://sodipodi.sourceforge.net/DTD/sodipodi-0.dtd"
   xmlns:inkscape="http://www.inkscape.org/namespaces/inkscape"
   width="30"
   height="30"
   id="svg2"
   version="1.1"
   inkscape:version="0.48.3.1 r9886"
   sodipodi:docname="seemore.svg">
  <defs
     id="defs4" />
  <sodipodi:namedview
     id="base"
     pagecolor="#ffffff"
     bordercolor="#666666"
     borderopacity="1.0"
     inkscape:pageopacity="0.0"
     inkscape:pageshadow="2"
     inkscape:zoom="15.839192"
     inkscape:cx="13.133108"
     inkscape:cy="15.725592"
     inkscape:document-units="px"
     inkscape:current-layer="layer1"
     showgrid="false"
     inkscape:window-width="1223"
     inkscape:window-height="936"
     inkscape:window-x="57"
     inkscape:window-y="24"
     inkscape:window-maximized="1" />
  <metadata
     id="metadata7">
    <rdf:RDF>
      <cc:Work
         rdf:about="">
        <dc:format>image/svg+xml</dc:format>
        <dc:type
           rdf:resource="http://purl.org/dc/dcmitype/StillImage" />
        <dc:title />
      </cc:Work>
    </rdf:RDF>
  </metadata>
  <g
     inkscape:label="Layer 1"
     inkscape:groupmode="layer"
     id="layer1"
     transform="translate(0,-1022.3622)">
    <path
       style="fill:none;stroke:#000000;stroke-width:1px;stroke-linecap:butt;stroke-linejoin:miter;stroke-opacity:1"
       d="m 6.2503189,6.008877 c 0.05201,0.2080388 0.081339,0.3736946 0.1894036,0.5682108 0.051101,0.091982 0.1290615,0.1663351 0.1894036,0.2525381 0.087027,0.1243238 0.1627948,0.25643 0.2525381,0.3788072 0.1418966,0.1934954 0.268702,0.4021894 0.4419418,0.5682109 0.334616,0.3206736 0.7233559,0.5799959 1.0732871,0.8838834 0.4499859,0.3907773 0.8843702,0.7991668 1.3258252,1.1995562 0.4629867,0.4208964 0.9259727,0.8417934 1.3889597,1.2626904 0.336718,0.357763 0.650575,0.738509 1.010153,1.073287 0.252621,0.2352 0.576683,0.38728 0.820749,0.631346 0.261519,0.261519 0.616608,0.956479 0.820748,1.26269 0.698011,1.047016 0.05489,-0.01125 0.757615,0.947018 0.117407,0.160101 0.198265,0.344976 0.315673,0.505077 0.741015,1.010475 0.03809,-0.04464 0.694479,0.757614 0.0961,0.117453 0.161485,0.257402 0.252539,0.378807 0.03571,0.04762 0.08418,0.08418 0.126269,0.126269 0.06313,0.06313 0.126269,0.126269 0.189403,0.189404"
       id="path2993"
       inkscape:connector-curvature="0"
       transform="translate(0,1022.3622)" />
    <path
       style="fill:none;stroke:#000000;stroke-width:1px;stroke-linecap:butt;stroke-linejoin:miter;stroke-opacity:1"
       d="m 15.657364,16.678613 c 0.07925,-0.19811 0.168226,-0.469153 0.315673,-0.631345 0.130515,-0.143566 0.308503,-0.237955 0.441942,-0.378807 0.246474,-0.260168 0.441066,-0.567336 0.69448,-0.820749 2.014776,-2.014776 0.420791,-0.07775 2.588516,-2.462247 0.625247,-0.687772 1.368648,-1.661656 1.894036,-2.4622469 0.201979,-0.307778 0.369766,-0.6369489 0.568211,-0.947018 0.722204,-1.1284439 0.193646,-0.1717864 0.694479,-1.0732871 0.229786,-0.4136142 -0.06909,0.1441263 0.06314,-0.2525381 0.0094,-0.028235 0.05372,-0.0349 0.06313,-0.063135 0.01331,-0.03993 -0.01882,-0.088623 0,-0.1262691 0.02662,-0.05324 0.09565,-0.075228 0.12627,-0.1262691 0.03424,-0.057066 0.04209,-0.1262691 0.06313,-0.1894036 0.04415,-0.1324343 0.126269,-0.3043538 0.126269,-0.4419417"
       id="path2995"
       inkscape:connector-curvature="0"
       transform="translate(0,1022.3622)" />
    <path
       style="fill:none;stroke:#000000;stroke-width:1px;stroke-linecap:butt;stroke-linejoin:miter;stroke-opacity:1"
       d="m 7.7655477,16.615479 c 0.097352,0.162254 0.3317334,0.564233 0.4419417,0.69448 0.3237137,0.38257 1.2185111,1.111707 1.4520943,1.325825 0.4279533,0.39229 0.8372693,0.804522 1.2626903,1.199556 0.91703,0.851528 1.84995,1.685789 2.77792,2.525381 0.419901,0.379911 0.862285,0.736016 1.262691,1.136422 0.274391,0.274391 0.483223,0.609492 0.757614,0.883883 0.152466,0.152467 1.198171,1.009114 1.452094,1.199557 0.205508,0.154131 0.423593,0.290849 0.631346,0.441941 0.02407,0.0175 0.03837,0.04663 0.06313,0.06313 0.03915,0.0261 0.09299,0.02986 0.126269,0.06313 0.01488,0.01488 -0.01488,0.04825 0,0.06313 0.03328,0.03327 0.08712,0.03703 0.126269,0.06313 0.02476,0.01651 0.04209,0.04209 0.06314,0.06314 0.605651,-1.211276 -0.144504,0.186928 0.631344,-0.947005 1.941246,-2.837205 -1.853395,2.28179 1.325825,-1.957171 1.036392,-1.381855 0.98331,-1.24123 1.957171,-2.65165 0.301793,-0.43708 0.62502,-0.862028 0.883883,-1.325825 0.247861,-0.444084 0.367752,-0.954031 0.631346,-1.38896 1.21152,-1.332672 0.212283,-0.08739 0.883883,-1.262691 0.551006,-0.96426 -0.0036,0.163163 0.441942,-0.505076 0.273398,-0.410097 -0.0013,-0.05938 0.06313,-0.252538 0.01488,-0.04464 0.04825,-0.08163 0.06313,-0.126269 0.01331,-0.03993 0,-0.08418 0,-0.126269"
       id="path2997"
       inkscape:connector-curvature="0"
       transform="translate(0,1022.3622)" />
  </g>
</svg>
