<?xml version="1.0" encoding="UTF-8" standalone="no"?>
<!-- Created with Inkscape (http://www.inkscape.org/) -->

<svg
   xmlns:dc="http://purl.org/dc/elements/1.1/"
   xmlns:cc="http://creativecommons.org/ns#"
   xmlns:rdf="http://www.w3.org/1999/02/22-rdf-syntax-ns#"
   xmlns:svg="http://www.w3.org/2000/svg"
   xmlns="http://www.w3.org/2000/svg"
   xmlns:sodipodi="http://sodipodi.sourceforge.net/DTD/sodipodi-0.dtd"
   xmlns:inkscape="http://www.inkscape.org/namespaces/inkscape"
   width="30"
   height="30"
   id="svg2"
   version="1.1"
   inkscape:version="0.48.3.1 r9886"
   sodipodi:docname="seemore.svg">
  <defs
     id="defs4" />
  <sodipodi:namedview
     id="base"
     pagecolor="#ffffff"
     bordercolor="#666666"
     borderopacity="1.0"
     inkscape:pageopacity="0.0"
     inkscape:pageshadow="2"
     inkscape:zoom="15.839192"
     inkscape:cx="13.133108"
     inkscape:cy="15.725592"
     inkscape:document-units="px"
     inkscape:current-layer="layer1"
     showgrid="false"
     inkscape:window-width="1223"
     inkscape:window-height="936"
     inkscape:window-x="57"
     inkscape:window-y="24"
     inkscape:window-maximized="1" />
  <metadata
     id="metadata7">
    <rdf:RDF>
      <cc:Work
         rdf:about="">
        <dc:format>image/svg+xml</dc:format>
        <dc:type
           rdf:resource="http://purl.org/dc/dcmitype/StillImage" />
        <dc:title></dc:title>
      </cc:Work>
    </rdf:RDF>
  </metadata>
  <g
     inkscape:label="Layer 1"
     inkscape:groupmode="layer"
     id="layer1"
     transform="translate(0,-1022.3622)">
    <path
       style="fill:none;stroke:#000000;stroke-width:1px;stroke-linecap:butt;stroke-linejoin:miter;stroke-opacity:1"
       d="M 8.8388347,21.476838 C 8.9440589,21.350569 9.054292,21.228311 9.1545074,21.098031 9.2648861,20.954538 9.356021,20.796593 9.47018,20.656089 c 0.637675,-0.784831 0.4490985,-0.389542 1.073287,-1.325825 0.905172,-1.357758 0.208835,-0.530985 1.136422,-1.767767 0.179462,-0.239283 0.378807,-0.462987 0.568211,-0.69448 0.189403,-0.231493 0.377717,-0.463883 0.56821,-0.69448 0.209363,-0.253439 0.432436,-0.495891 0.631346,-0.757614 0.58316,-0.767316 1.036487,-1.632668 1.704632,-2.335978 0.195005,-0.205269 0.436942,-0.362372 0.631345,-0.568211 0.164754,-0.174445 0.288331,-0.383877 0.441942,-0.568211 0.162232,-0.194677 0.339108,-0.376709 0.505076,-0.56821 0.223708,-0.258125 0.463888,-0.57242 0.69448,-0.820749 0.141761,-0.152666 0.299792,-0.289639 0.441942,-0.441942 0.152641,-0.1635443 0.278737,-0.3520721 0.441942,-0.5050764 0.350102,-0.3282208 0.775263,-0.5678695 1.136421,-0.8838834 0.156787,-0.1371885 0.294628,-0.2946279 0.441942,-0.4419418 0.336718,-0.3367175 0.673435,-0.673435 1.010153,-1.0101525 0.08418,-0.084179 0.162945,-0.1741447 0.252538,-0.2525381 0.07919,-0.069291 0.172646,-0.1209246 0.252538,-0.1894036 0.06779,-0.058106 0.126269,-0.1262691 0.189404,-0.1894036 0.06313,-0.063135 0.131297,-0.1216129 0.189403,-0.1894036 0.533206,-0.6220733 -0.08405,0.057716 0.315673,-0.4419418 0.05578,-0.06972 0.139877,-0.1151134 0.189403,-0.1894036 0.196708,-0.2950618 -0.123632,0.075622 0.189404,-0.3156726 0.386607,-0.3866066 -0.07986,0.1064794 0.189404,-0.2525382 0.03571,-0.047619 0.09564,-0.075228 0.126269,-0.1262691 0.03424,-0.057066 0.03842,-0.1276138 0.06313,-0.1894036 0.01748,-0.043692 0.05172,-0.080616 0.06314,-0.126269 0.01431,-0.057234 0,-0.2423312 0,-0.3156727 0,-0.021045 0,-0.04209 0,-0.063134 0,-0.021045 -0.0094,-0.044312 0,-0.063135 0.01331,-0.02662 0.04209,-0.04209 0.06313,-0.063134"
       id="path2985"
       inkscape:connector-curvature="0"
       transform="translate(0,1022.3622)" />
    <path
       style="fill:none;stroke:#000000;stroke-width:1px;stroke-linecap:butt;stroke-linejoin:miter;stroke-opacity:1"
       d="m 8.2074894,3.7991685 c 0.063135,0.1262691 0.1046997,0.2658688 0.1894036,0.3788072 0.045527,0.060703 0.1311123,0.077693 0.1894036,0.1262691 0.068591,0.057159 0.1312972,0.1216128 0.1894036,0.1894036 0.068479,0.079892 0.1282432,0.1669137 0.1894036,0.2525381 0.044103,0.061745 0.076888,0.1317926 0.126269,0.1894036 0.1549504,0.1807754 0.345799,0.3281015 0.5050763,0.5050763 0.1099547,0.1221719 0.1940521,0.268243 0.3156727,0.3788072 0.1122912,0.1020825 0.2660072,0.1510184 0.3788072,0.2525382 0.100161,0.090145 0.163013,0.2149572 0.252538,0.3156726 0.07909,0.088977 0.164051,0.1728995 0.252538,0.2525382 0.397774,0.3579959 0.348912,0.2473803 0.69448,0.6313453 0.09014,0.1001609 0.168359,0.2104484 0.252538,0.3156727 0.105224,0.1052242 0.215573,0.2055625 0.315673,0.3156726 0.377086,0.4147948 0.303312,0.4554992 0.820749,0.820749 0.177012,0.1249499 0.390708,0.1914206 0.568211,0.3156726 0.488451,0.3419161 0.917189,0.7694128 1.325825,1.1995562 0.307244,0.323415 0.875991,0.972384 1.136421,1.325825 0.117772,0.159833 0.207818,0.338391 0.315673,0.505076 0.123663,0.191116 0.268258,0.369223 0.378807,0.568211 0.359987,0.647977 0.1499,0.447483 0.441942,1.073287 0.07175,0.153751 0.168359,0.294628 0.252538,0.441942 0.08418,0.147314 0.168359,0.294628 0.252538,0.441942 0.08418,0.147314 0.158423,0.300768 0.252538,0.441942 0.07475,0.112121 0.192275,0.195146 0.252539,0.315672 0.04799,0.09598 0.02546,0.215197 0.06313,0.315673 0.02664,0.07105 0.09234,0.121536 0.126269,0.189403 0.02976,0.05952 0.02156,0.137438 0.06313,0.189404 0.0474,0.05925 0.142003,0.06702 0.189403,0.126269 0.0064,0.0079 0.115558,0.357384 0.126269,0.378807 0.03393,0.06787 0.09234,0.121536 0.126269,0.189404 0.02976,0.05952 0.02622,0.134031 0.06314,0.189404 0.04953,0.07429 0.126269,0.126269 0.189404,0.189403 0.08418,0.08418 0.174144,0.162946 0.252538,0.252538 0.06929,0.07919 0.114999,0.178134 0.189403,0.252538 0.179207,0.179207 0.439373,0.281965 0.631346,0.441942 0.06859,0.05716 0.126269,0.126269 0.189403,0.189404 0.06313,0.06313 0.132245,0.120812 0.189404,0.189403 0.04858,0.05829 0.07769,0.131113 0.126269,0.189404 0.05716,0.06859 0.120812,0.132244 0.189404,0.189404 0.05829,0.04858 0.142002,0.06702 0.189403,0.126269 0.351391,0.439238 -0.127513,-0.0016 0.126269,0.315672 0.111553,0.139441 0.264489,0.241625 0.378807,0.378807 0.04858,0.05829 0.07769,0.131113 0.12627,0.189404 0.05716,0.06859 0.133627,0.119683 0.189403,0.189404 0.102212,0.127764 0.03508,0.16369 0.126269,0.315672 0.03063,0.05104 0.09056,0.07865 0.126269,0.126269 0.02824,0.03765 0.03703,0.08712 0.06313,0.126269 0.01651,0.02476 0.04982,0.03652 0.06313,0.06314 0.06366,0.127327 0.04352,0.205342 0.126269,0.315673 0.03571,0.04762 0.09325,0.07674 0.126269,0.126269 0.01167,0.01751 -0.0067,0.04317 0,0.06313 0.01488,0.04464 0.04209,0.08418 0.06313,0.126269 0.02105,0.04209 0.02986,0.09299 0.06313,0.126269 0.01488,0.01488 0.04825,-0.01488 0.06313,0 0.01488,0.01488 -0.0094,0.04431 0,0.06313 0.01331,0.02662 0.04982,0.03651 0.06313,0.06313 0.0094,0.01882 -0.0094,0.04431 0,0.06314 0.07559,0.151182 0.126269,-0.03979 0.126269,0.126269"
       id="path2987"
       inkscape:connector-curvature="0"
       transform="translate(0,1022.3622)" />
  </g>
</svg>
