<?xml version="1.0" encoding="UTF-8" standalone="no"?>
<!-- Created with Inkscape (http://www.inkscape.org/) -->

<svg
   xmlns:dc="http://purl.org/dc/elements/1.1/"
   xmlns:cc="http://creativecommons.org/ns#"
   xmlns:rdf="http://www.w3.org/1999/02/22-rdf-syntax-ns#"
   xmlns:svg="http://www.w3.org/2000/svg"
   xmlns="http://www.w3.org/2000/svg"
   xmlns:sodipodi="http://sodipodi.sourceforge.net/DTD/sodipodi-0.dtd"
   xmlns:inkscape="http://www.inkscape.org/namespaces/inkscape"
   width="744.09448819"
   height="1052.3622047"
   id="svg2"
   version="1.1"
   inkscape:version="0.48.3.1 r9886"
   sodipodi:docname="not_mapped.svg">
  <defs
     id="defs4" />
  <sodipodi:namedview
     id="base"
     pagecolor="#ffffff"
     bordercolor="#666666"
     borderopacity="1.0"
     inkscape:pageopacity="0.0"
     inkscape:pageshadow="2"
     inkscape:zoom="0.98994949"
     inkscape:cx="291.20234"
     inkscape:cy="322.91249"
     inkscape:document-units="px"
     inkscape:current-layer="layer1"
     showgrid="false"
     inkscape:window-width="1223"
     inkscape:window-height="936"
     inkscape:window-x="57"
     inkscape:window-y="24"
     inkscape:window-maximized="1" />
  <metadata
     id="metadata7">
    <rdf:RDF>
      <cc:Work
         rdf:about="">
        <dc:format>image/svg+xml</dc:format>
        <dc:type
           rdf:resource="http://purl.org/dc/dcmitype/StillImage" />
        <dc:title></dc:title>
      </cc:Work>
    </rdf:RDF>
  </metadata>
  <g
     inkscape:label="Layer 1"
     inkscape:groupmode="layer"
     id="layer1">
    <path
       style="fill:#ff0000"
       id="path3013"
       d="m 170.50182,902.81939 c 5.30118,-6.09941 8.67531,-13.55312 12.19889,-20.74854 6.50409,-13.338 13.63823,-26.36254 21.12966,-39.16847 9.68831,-15.45521 21.18262,-29.79363 33.45313,-43.27487 2.74808,-3.01923 5.60686,-5.93583 8.41029,-8.90374 12.59329,-12.93133 27.2327,-23.5657 41.78601,-34.13849 13.35304,-9.70081 10.65132,-7.72168 24.22801,-17.2525 15.43656,-10.87085 30.77814,-21.96489 47.19685,-31.33759 53.05672,-30.28771 35.11396,-21.75157 64.20977,-34.9439 15.44254,-6.30528 31.197,-11.91408 47.46996,-15.63401 5.61797,-1.12972 2.94794,-0.63932 8.0051,-1.49801 0,0 -45.49461,34.05546 -45.49461,34.05546 l 0,0 c -4.10396,0.45574 -1.9229,0.17721 -6.53929,0.86554 -14.41967,2.80978 -28.5081,7.24236 -42.069,12.88147 -21.98972,10.07139 -11.27876,5.63583 19.09062,-12.92922 3.95078,-2.41515 -8.05623,4.57056 -12.01248,6.97672 -8.85031,5.3827 -15.57499,9.9662 -24.10255,15.87035 -4.03745,2.79538 -8.03311,5.65063 -12.04967,8.47594 -15.97004,11.16766 -8.13056,5.55696 -23.67038,16.92922 -10.70686,7.83543 -21.59001,15.5767 -31.59516,24.31616 -3.09156,2.70047 -5.99517,5.60882 -8.99275,8.41323 -7.14936,7.3846 -9.68183,9.74023 -16.27962,17.58263 -8.50747,10.11233 -16.08068,20.97697 -23.04023,32.19958 -7.08244,12.1673 -13.49539,24.66955 -19.04016,37.61908 -2.78099,6.68849 -5.62735,13.34642 -8.36989,20.05105 0,0 -53.9225,23.59291 -53.9225,23.59291 z"
       inkscape:connector-curvature="0" />
    <path
       style="fill:#ff0000"
       id="path3015"
       d="m 282.45801,636.02166 c 0.48006,0.74796 0.92326,1.5209 1.44019,2.24387 1.74493,2.44043 3.66818,4.7484 5.47894,7.14038 4.89822,6.47042 9.76257,12.96424 14.58753,19.48953 10.88064,14.93801 21.09799,30.36825 30.34305,46.37504 5.58369,9.66751 12.08666,21.89998 17.36057,31.67587 18.08149,32.2031 34.53851,65.27286 52.00928,97.80058 2.38437,4.28789 4.74499,8.58906 7.15312,12.86365 2.11323,3.75112 4.28722,7.46773 6.41072,11.21305 5.02798,8.86813 9.87827,17.82301 15.62142,26.26125 1.35982,1.99794 2.83416,3.91549 4.25124,5.87324 1.2042,1.44889 2.4084,2.89777 3.6126,4.34666 0,0 -47.29358,27.61256 -47.29358,27.61256 l 0,0 c -0.84807,-1.73721 -1.69614,-3.47441 -2.54422,-5.21162 -3.80183,-8.04341 -7.62993,-16.0682 -11.23779,-24.20177 -5.40317,-12.18094 -4.22814,-9.82527 -9.72513,-22.63198 -1.94763,-4.53752 -3.93076,-9.05973 -5.89615,-13.58959 -15.01981,-33.67584 -31.14611,-66.89952 -50.33298,-98.43352 -3.19196,-5.27005 -6.29213,-10.59679 -9.57587,-15.81014 -12.90452,-20.48757 -27.19121,-40.22468 -43.99509,-57.70914 -8.73423,-8.66405 -17.36438,-17.72085 -27.49307,-24.77499 0,0 49.82522,-30.53293 49.82522,-30.53293 z"
       inkscape:connector-curvature="0" />
  </g>
</svg>
